<?xml version="1.0" encoding="UTF-8" standalone="no"?>
<!-- Created with Inkscape (http://www.inkscape.org/) -->

<svg
   width="210mm"
   height="297mm"
   viewBox="0 0 210 297"
   version="1.1"
   id="svg5"
   inkscape:version="1.1 (c68e22c387, 2021-05-23)"
   sodipodi:docname="fashionhub.svg"
   xmlns:inkscape="http://www.inkscape.org/namespaces/inkscape"
   xmlns:sodipodi="http://sodipodi.sourceforge.net/DTD/sodipodi-0.dtd"
   xmlns="http://www.w3.org/2000/svg"
   xmlns:svg="http://www.w3.org/2000/svg">
  <sodipodi:namedview
     id="namedview7"
     pagecolor="#ffffff"
     bordercolor="#999999"
     borderopacity="1"
     inkscape:pageshadow="0"
     inkscape:pageopacity="0"
     inkscape:pagecheckerboard="0"
     inkscape:document-units="mm"
     showgrid="false"
     inkscape:zoom="1"
     inkscape:cx="353.5"
     inkscape:cy="654.5"
     inkscape:window-width="1920"
     inkscape:window-height="1001"
     inkscape:window-x="-9"
     inkscape:window-y="-9"
     inkscape:window-maximized="1"
     inkscape:current-layer="layer1" />
  <defs
     id="defs2">
    <rect
       x="44.237229"
       y="348.36818"
       width="684.29464"
       height="266.80579"
       id="rect2960" />
  </defs>
  <g
     inkscape:label="Layer 1"
     inkscape:groupmode="layer"
     id="layer1">
    <path
       id="text2958"
       style="font-size:192px;line-height:1.25;font-family:'Poor Richard';-inkscape-font-specification:'Poor Richard, Normal';font-variant-ligatures:none;letter-spacing:10px;white-space:pre;shape-inside:url(#rect2960);fill:#fff;fill-opacity:1;stroke-width:1.03999"
       inkscape:transform-center-x="1.293577"
       inkscape:transform-center-y="5.8820829"
       transform="scale(0.26458333)"
       d="m 497.16211,440.0918 c -1.04877,-0.053 -2.11533,0.0619 -3.19727,0.34375 -3.54088,0.92237 -6.84065,3.71593 -9.90039,8.3789 -2.99416,4.6459 -6.81585,12.82558 -11.46484,24.53907 2.75784,-8.06368 3.53102,-14.00083 2.31836,-17.8086 -0.81476,-2.55835 -2.30374,-4.55384 -4.46485,-5.98828 -2.16033,-1.43444 -4.35649,-1.86201 -6.58593,-1.28125 -3.47531,0.9053 -8.28735,8.76405 -14.43555,23.57422 l -1.1582,2.7168 c -0.13987,0.22973 -0.19519,0.50184 -0.16602,0.8164 0.17926,0.3399 0.43386,0.46822 0.76172,0.38281 0.30891,-0.14413 0.63469,-0.68023 0.97852,-1.60742 5.762,-15.35389 10.31599,-23.46675 13.66015,-24.33789 1.6393,-0.42702 2.74212,0.25222 3.31055,2.03711 1.00423,3.15331 -0.8447,12.17162 -5.54883,27.05664 l -8.32422,26.04102 c 1.95694,-0.7675 4.08389,-1.45099 6.37891,-2.04883 0.65572,-0.17081 2.6272,-0.55531 5.91601,-1.1543 9.66416,-37.43971 19.28198,-57.40655 28.85547,-59.90039 2.81959,-0.73448 4.61963,0.11729 5.39649,2.55664 0.62527,1.96339 -0.58156,7.20733 -3.61914,15.73047 -2.95456,8.11492 -4.68646,13.49377 -5.19336,16.13867 -0.46028,2.56833 -0.26281,5.1918 0.58984,7.86914 0.96634,3.03432 2.7642,5.33631 5.39453,6.90625 2.6959,1.55287 5.51997,1.94639 8.47071,1.17774 4.45888,-1.16151 9.243,-6.9837 14.35546,-17.46485 6.22996,-12.76886 9.14595,-19.77987 8.74805,-21.02929 -0.11369,-0.35698 -0.36633,-0.48335 -0.75976,-0.38086 -0.32786,0.0854 -0.56084,0.46807 -0.69922,1.14844 -8.28823,22.58404 -15.34965,34.63603 -21.18555,36.15625 -2.68845,0.70032 -4.42236,-0.17002 -5.19922,-2.60938 -0.73896,-2.32036 0.63874,-8.47608 4.13086,-18.4707 3.41782,-9.78197 4.49216,-16.66608 3.22266,-20.65235 -1.00424,-3.15331 -2.83119,-5.54634 -5.48047,-7.17578 -1.6558,-1.0184 -3.35753,-1.57183 -5.10547,-1.66015 z m -203.19922,6.14843 c -2.17111,1.20989 -4.56853,2.15661 -7.19141,2.83985 -1.37701,0.3587 -3.1047,0.61603 -5.18554,0.77148 l -7.61719,26.91992 c -5.65236,20.15775 -9.05071,32.12391 -10.19141,35.9004 -1.96225,7.66236 -3.3863,13.44783 -4.27343,17.35156 l -6.89844,27.50586 c 2.31247,-0.98898 4.19023,-1.67305 5.63281,-2.04883 1.37701,-0.3587 3.10666,-0.61603 5.1875,-0.77149 5.50653,-21.73056 10.46673,-36.81098 14.88281,-45.24218 4.58364,-8.79701 8.84303,-13.70833 12.77735,-14.73242 2.68845,-0.70033 4.40166,0.10932 5.14062,2.42968 0.62528,1.96339 -1.30577,9.16876 -5.79297,21.61328 -2.84236,8.02126 -3.59978,14.1126 -2.27343,18.27735 0.98528,3.09381 2.79349,5.42615 5.42382,6.99609 2.67696,1.49337 5.58888,1.82966 8.73633,1.00977 4.59572,-1.19716 9.58816,-7.44848 14.9668,-18.60938 -0.0694,-0.24738 -0.0723,-0.32945 -0.0508,-0.53711 -0.10234,-0.2233 -0.16859,-0.46406 -0.1875,-0.70898 -0.002,-0.0246 -0.007,-0.0496 -0.004,-0.0723 -0.10769,-0.3625 -0.0128,-0.0319 -0.19922,-0.61719 -0.0158,-0.0495 -0.0141,-0.0483 -0.0273,-0.0898 -5.23614,11.501 -9.90012,17.98828 -13.94141,19.04102 -2.81959,0.73448 -4.63641,-0.17798 -5.45117,-2.73633 -0.70107,-2.20137 0.78818,-8.45298 4.4668,-18.75391 3.30711,-9.23767 4.3074,-15.90841 3,-20.01367 -1.00424,-3.15331 -2.87363,-5.56643 -5.60742,-7.23828 -2.66823,-1.68894 -5.41283,-2.16613 -8.23243,-1.43164 -7.14733,1.86183 -14.24212,12.69902 -21.2832,32.50976 5.07116,-17.30019 7.71011,-26.29864 7.91406,-26.99609 7.1982,-23.33101 12.62411,-40.85407 16.2793,-52.56641 z m 59.21875,9.18946 c -0.5796,-0.0222 -1.22088,0.0586 -1.92578,0.24219 -2.22945,0.57998 -4.06833,2.05773 -5.51367,4.43164 -1.4643,2.3144 -1.88309,4.45458 -1.25781,6.41796 0.85188,2.67734 2.75434,3.62998 5.70507,2.86133 2.29502,-0.59783 4.10826,-2.03616 5.44141,-4.3164 1.37977,-2.35683 1.73934,-4.57583 1.07617,-6.65821 -0.61107,-1.91876 -1.7866,-2.91197 -3.52539,-2.97851 z m 59.09766,6.59765 c -0.92038,0.0314 -1.90945,0.18551 -2.9668,0.46094 -6.03261,1.57146 -12.749,6.57316 -20.14648,15.00781 -10.53599,11.95837 -14.34375,22.51919 -11.42579,31.68164 1.3074,4.10526 3.81227,7.28751 7.51368,9.54493 3.74803,2.18084 7.58912,2.75728 11.52343,1.73242 7.60634,-1.98141 13.96392,-9.66244 19.07618,-23.04297 1.80109,0.30401 3.71922,0.19162 5.75195,-0.33789 4.85232,-1.264 9.32872,-5.26509 13.43164,-12.00391 2.75082,-4.51807 3.97504,-7.25313 3.67187,-8.20508 -0.0758,-0.23798 -0.24357,-0.32223 -0.50586,-0.2539 -0.32708,0.0854 -0.71975,0.63736 -1.17578,1.6582 -1.37381,4.15937 -3.63102,8.00168 -6.76953,11.52539 -3.1385,3.52372 -6.18207,5.67081 -9.13281,6.43946 -1.6393,0.42625 -3.22877,0.45667 -4.76758,0.082 4.86466,-11.70524 6.20634,-20.98018 4.02735,-27.82227 -1.41635,-4.44736 -4.11717,-6.60267 -8.10547,-6.4668 z m -0.27344,1.29102 c 3.39381,-0.089 5.71393,1.82267 6.96094,5.73828 0.81475,2.55835 1.02778,5.01542 0.64258,7.37109 -0.77239,-1.08744 -1.68328,-1.494 -2.73243,-1.2207 -2.42616,0.632 -4.42407,2.82792 -5.99609,6.58789 -1.57202,3.75998 -1.89329,7.09835 -0.96484,10.01367 0.64422,2.02288 2.21864,3.73795 4.72656,5.14649 -5.0205,12.77674 -11.07058,20.08688 -18.15235,21.93164 -4.32774,1.12735 -7.14572,-0.36154 -8.45312,-4.4668 -2.25479,-7.08007 -0.73636,-16.9139 4.55664,-29.5039 5.293,-12.59 10.92358,-19.66242 16.89063,-21.2168 0.89674,-0.2338 1.73829,-0.36033 2.52148,-0.38086 z m -58.30078,14.42773 c -2.54123,1.03407 -4.3865,1.64601 -6.00391,2.1211 -7.2e-4,5.7e-4 -0.001,0.001 -0.002,0.002 -0.003,0.002 -0.005,0.004 -0.008,0.006 -0.002,0.001 -0.004,0.001 -0.006,0.002 -0.0113,0.004 -0.023,0.008 -0.0332,0.0156 -0.006,0 -0.0119,0.005 -0.0176,0.008 -0.006,0.004 -0.0131,0.005 -0.0195,0.008 -0.004,0.003 -0.008,0.004 -0.0117,0.006 6.9e-4,-0.001 0.001,-0.003 0.002,-0.004 -0.006,4e-4 -0.0115,-6.7e-4 -0.0176,-0.002 -6.4e-4,-1.3e-4 -0.001,1.5e-4 -0.002,0 -0.009,0.003 -0.0258,0.009 -0.0352,0.0117 0.0112,0.002 0.0258,0.004 0.0332,0.008 -0.003,1.6e-4 -0.006,0.002 -0.01,0.004 -0.0163,0.0113 -0.0338,0.0198 -0.0527,0.0215 -0.004,0.001 -0.005,0.002 -0.006,0.002 v 0.002 c -6.9e-4,4e-4 -0.004,0.001 -0.006,0.002 -0.002,5.9e-4 -0.002,0.001 -0.004,0.002 -0.001,5.3e-4 -0.003,0.001 -0.004,0.002 -9e-4,3e-5 -0.001,0.002 -0.002,0.002 l -0.002,0.002 c -0.004,0.003 -0.006,0.006 -0.004,0.004 -0.006,0.008 -0.0122,0.0149 -0.0215,0.0176 -0.002,4.7e-4 -0.005,9.5e-4 -0.008,0.002 -10e-4,2.8e-4 -0.002,9.6e-4 -0.006,0.002 h -0.002 c -10e-4,8.3e-4 -0.003,9.5e-4 -0.004,0.002 -0.009,0.006 -0.0133,0.0109 -0.0234,0.0137 -0.002,0.002 -0.008,0.002 -0.01,0.004 -0.005,0.004 -0.008,0.005 -0.0137,0.008 -0.0136,0.004 -0.0309,0.004 -0.043,0.0156 -0.003,10e-4 -0.007,0.001 -0.01,0.002 -0.006,0.006 -0.013,0.0119 -0.0156,0.01 -0.002,-0.002 -0.003,-0.001 -0.004,0 -0.001,0.001 -0.005,0.006 -0.008,0.008 -0.002,0.004 -0.0167,0.0119 -0.0254,0.0117 l -0.002,-0.002 c -0.002,6.8e-4 -0.004,0.003 -0.006,0.004 -0.005,0 -0.009,0.005 -0.0137,0.008 -0.005,0.004 -0.0103,0.006 -0.0156,0.008 -0.002,7.6e-4 -0.004,-7.1e-4 -0.006,0 0,0 -0.002,0 -0.002,0 -0.004,0.004 -0.008,0.007 -0.0117,0.01 -0.004,0 -0.0142,0.006 -0.0195,0.008 h -0.002 l -0.002,0.002 c -0.004,0 -0.008,0.006 -0.0117,0.008 -0.004,9.8e-4 -0.008,0.002 -0.0117,0.004 -0.001,3.4e-4 -0.005,8.7e-4 -0.004,0 -0.004,0.001 -0.006,0.006 -0.01,0.008 -0.002,7.9e-4 -0.004,0.001 -0.006,0.002 -0.007,0.003 -0.0144,0.004 -0.0215,0.006 l -0.002,0.002 c -0.002,9e-4 -0.004,0.001 -0.006,0.002 -0.006,0.004 -0.0112,0.005 -0.0176,0.008 -0.003,0.001 -0.007,8.2e-4 -0.01,0.002 -0.0117,0.005 -0.008,0.004 -0.0176,0.008 0,0 -0.002,0 -0.002,0 0,0 -0.002,0.002 -0.002,0.002 l -0.002,0.002 c -9.9e-4,0.001 -0.003,0.003 -0.004,0.004 -0.0136,0.0112 -0.0146,0.0115 -0.0215,0.0137 0,0 -0.002,0 -0.002,0 -0.001,4.3e-4 -0.002,0.001 -0.004,0.002 0,0 -0.002,0 -0.002,0 0,0 -0.002,0.002 -0.002,0.002 0,0 0,0.002 0,0.002 0,0 -0.002,0 -0.002,0 -0.0119,0.009 -0.014,0.01 -0.0195,0.0117 0,0 -0.002,0 -0.002,0 -0.003,0.002 -0.006,0.004 -0.01,0.006 0,0 -0.002,0.002 -0.002,0.002 0,0 -0.002,0.002 -0.002,0.002 -9.7e-4,6e-4 -0.003,0.001 -0.004,0.002 -0.001,6.7e-4 -0.003,0.001 -0.004,0.002 -0.002,6.3e-4 -0.005,0.002 -0.006,0.002 0,0 -0.002,0 -0.002,0 0,0 -0.002,0 -0.002,0 0,0 -0.002,0.002 -0.002,0.002 0,0 -0.002,0 -0.002,0 -0.004,8.3e-4 -0.01,6.3e-4 -0.0137,0.002 0,0 0,0.002 0,0.002 0.002,1.5e-4 0.007,-7.9e-4 0.01,-0.002 -0.006,0.006 -0.0102,0.0125 -0.0176,0.0156 -0.001,0.002 -0.002,0.004 -0.004,0.006 -0.004,0.004 -0.008,0.01 -0.0137,0.0117 -0.003,8.4e-4 -0.007,0.001 -0.0117,0.002 0,0 -0.002,0 -0.002,0 -0.009,0.008 -0.0182,0.0126 -0.0293,0.0156 0,0 -0.002,0.002 -0.002,0.002 0,0 -0.002,0 -0.002,0 0,0 -0.002,0.002 -0.002,0.002 0,0 -0.002,0.002 -0.002,0.002 0,0 0,0.002 0,0.002 0,0 -0.002,0.002 -0.002,0.002 -0.0113,0.004 -0.0223,0.009 -0.0332,0.0156 0.003,-4.1e-4 0.006,-0.001 0.008,-0.002 -0.003,0.003 -0.005,0.006 -0.008,0.008 -0.001,7.9e-4 -0.002,0.001 -0.004,0.002 -0.002,0.002 -0.006,0.004 -0.01,0.006 -9.2e-4,0.001 -7.2e-4,0.003 -0.002,0.004 -0.007,0.007 -0.0191,0.0112 -0.0293,0.0117 -0.006,0 -0.0146,0.004 -0.0195,0.006 l 0.002,-0.0176 c -0.004,0.002 -0.01,0.003 -0.0137,0.004 -0.003,0.002 -0.007,0.004 -0.01,0.006 -0.006,0.004 -0.0119,0.005 -0.0176,0.008 l 0.002,0.002 c -5.1e-4,0.002 -0.002,7.3e-4 -0.004,0.002 -0.004,0 -0.008,0.009 -0.0117,0.0117 -0.004,0.003 -0.008,0.005 -0.01,0.006 -0.002,10e-4 -0.008,0.008 -0.0195,0.0156 -0.0142,0.006 -0.0186,0.0107 -0.0293,0.0117 h -0.002 l -0.006,0.006 c -0.004,0 -0.007,0.003 -0.0117,0.004 -0.005,0.004 -0.009,0.008 -0.0137,0.0117 -0.004,0.003 -0.006,0.005 -0.008,0.006 -5.9e-4,7.2e-4 -8.3e-4,0.003 -0.002,0.004 -0.0142,0.007 -0.0296,0.0149 -0.0449,0.0195 -9.7e-4,9.9e-4 -0.007,7.5e-4 -0.008,0.002 -0.003,0.003 -0.005,0.007 -0.008,0.01 -0.006,0.002 -0.0116,0.003 -0.0176,0.004 0.004,-6.5e-4 0.007,0 0.01,0 0.002,0 -0.002,0.003 -0.004,0.004 -0.0134,0.0113 -0.0267,0.018 -0.041,0.0293 -0.026,0.0219 -0.0634,0.0262 -0.0899,0.0488 -10e-4,0.001 -0.004,0.003 -0.006,0.004 -0.006,0.008 -0.0115,0.0118 -0.0176,0.0156 -0.003,0.003 -0.006,0.004 -0.01,0.006 10e-4,-10e-4 5.9e-4,-0.003 0.002,-0.004 -0.01,0.003 -0.0197,0.006 -0.0293,0.01 -0.006,0.002 -0.0116,0.006 -0.0176,0.008 0.003,8.8e-4 0.005,8.2e-4 0.008,0.002 0.005,-0.005 0.009,-0.007 0.01,-0.008 -8.2e-4,0.002 -0.002,0.005 -0.004,0.008 l -0.002,0.004 h -0.002 l -0.002,-0.004 c -0.007,0.007 -0.018,0.0178 -0.0312,0.0293 l -0.002,0.002 c -0.002,0.002 -0.004,0.007 -0.006,0.008 -0.003,0.004 -0.005,0.009 -0.008,0.0117 -0.01,0.008 -0.0297,0.0196 -0.043,0.0234 -0.005,10e-4 -0.008,0.002 -0.01,0.002 h -0.002 -0.002 l -0.002,0.004 c -0.002,10e-4 -0.004,0.002 -0.006,0.004 -0.006,0.005 -0.0133,0.0109 -0.0195,0.0156 -0.0149,0.007 -0.0306,0.011 -0.0469,0.0176 l -0.002,0.004 c -10e-4,8.2e-4 -0.003,8e-4 -0.004,0.002 -0.009,0.006 -0.0173,0.0133 -0.0273,0.0195 -0.007,0.004 -0.0143,0.005 -0.0215,0.008 -0.0155,0.007 -0.0316,0.011 -0.0469,0.0176 -0.0102,0.004 -0.0208,0.008 -0.0312,0.0117 -0.005,0.002 -0.0123,4.1e-4 -0.0176,0.002 -0.0106,0.004 -0.0213,0.008 -0.0312,0.0117 -0.02,0.008 -0.0406,0.0159 -0.0625,0.0234 -0.0153,0.004 -0.0318,0.0118 -0.0469,0.0156 -0.005,10e-4 -0.009,0.002 -0.01,0.002 l 0.004,0.002 c -0.0413,0.031 -0.0869,0.0554 -0.13281,0.0781 -0.009,0.008 -0.0202,0.0118 -0.0293,0.0156 -0.0223,0.0151 -0.0378,0.0258 -0.0586,0.0371 -0.0378,0.0238 -0.0766,0.0458 -0.11329,0.0723 -0.006,0.008 -0.0127,0.0118 -0.0195,0.0156 -0.0576,0.0352 -0.0317,0.0164 -0.0801,0.0391 -0.0302,0.0125 -0.0595,0.0318 -0.0879,0.0469 -0.009,0.004 -0.0182,0.01 -0.0273,0.0137 -0.0477,0.0285 -0.0885,0.0295 -0.11523,0.0156 -0.0101,0.006 -0.0159,0.0106 -0.0273,0.0176 -0.0106,0.008 -0.0222,0.0118 -0.0332,0.0156 v -0.006 c -0.008,0.004 -0.0145,0.007 -0.0215,0.008 -0.004,0.007 0.005,0.005 -0.002,0.0176 -0.003,0.004 -0.0115,0.002 -0.0176,0.004 l -0.004,-0.002 c -0.003,-6.1e-4 -0.009,7.4e-4 -0.0117,0 -0.003,0.002 -0.008,0.003 -0.01,0.004 -0.003,9.9e-4 -0.01,4.9e-4 -0.0117,0.002 -10e-4,-2.4e-4 -0.005,3.7e-4 -0.006,0 -1.7e-4,9.9e-4 -0.005,0.003 -0.006,0.004 10e-4,-0.008 0.008,-0.0199 0.01,-0.0312 -0.003,-0.004 -0.0107,-0.009 -0.0117,-0.0137 -0.0128,0.0221 -0.0157,0.024 -0.008,0.0391 -0.007,-0.001 -0.0132,-0.004 -0.0195,-0.002 -0.007,0.003 0.009,0.005 0.0215,0.008 2.3e-4,9.9e-4 -4e-4,0.003 0,0.004 -0.004,0.002 -0.007,0.003 -0.0137,0.006 -0.0204,0.008 -0.0405,0.016 -0.0605,0.0273 -0.0255,0.0117 -0.0505,0.0258 -0.0762,0.0371 -0.0113,0.004 -0.0219,0.0118 -0.0332,0.0156 -0.004,0.004 -0.0241,0.009 -0.0254,0.01 -0.003,6.1e-4 -0.005,-7.5e-4 -0.008,0 -0.0239,0.008 -0.025,0.0102 -0.0488,0.0215 -0.007,0.004 -0.0147,0.008 -0.0215,0.0117 -0.003,0.004 -0.005,0.01 -0.008,0.0117 -0.004,0 -0.008,0.009 -0.0117,0.0117 -0.0133,0.0113 -0.027,0.0197 -0.041,0.0274 -0.005,-1e-5 -0.009,0.004 -0.0137,0.008 -0.004,0 -0.008,0.009 -0.0117,0.0117 -0.0199,0.0113 -0.0426,0.0255 -0.0664,0.0293 -0.005,5.5e-4 -0.009,0.004 -0.0137,0.006 -0.0117,0.004 -0.0239,0.01 -0.0352,0.0137 -0.002,7.4e-4 -0.004,0.005 -0.006,0.006 -0.001,4.1e-4 -0.003,0.005 -0.004,0.006 -0.003,0.004 -0.007,0.003 -0.01,0.006 -0.005,0 -0.01,0.007 -0.0156,0.01 -0.003,0.001 -0.009,-0.001 -0.0117,0.004 -0.005,0.004 -0.009,0.009 -0.0137,0.0117 -0.0229,0.0113 -0.0206,0.012 -0.041,0.0195 l 0.002,0.008 c -0.0195,0.007 -0.0348,0.006 -0.0469,0.002 -0.0113,0.004 -0.0232,0.005 -0.0332,0.0137 -0.0144,0.008 -0.0309,0.0159 -0.0449,0.0234 -0.005,0.004 -0.01,0.007 -0.0117,0.008 -0.002,6.2e-4 -0.007,0.004 -0.0215,0.0117 -0.005,0.004 -0.009,0.008 -0.0137,0.01 -7e-4,-7.5e-4 2e-4,-0.005 -0.002,-0.004 -0.003,0 -0.006,0.005 -0.008,0.008 -0.009,0.0113 -0.0192,0.0216 -0.0312,0.0293 -0.0263,0.0181 -0.0505,0.0376 -0.0781,0.0527 -0.009,0.008 -0.0199,0.01 -0.0293,0.0137 h -0.004 c -0.002,0.003 -0.009,0.006 -0.0117,0.008 l -0.002,0.002 -0.004,0.008 c -0.0104,0.01 -0.0205,0.0142 -0.0332,0.0176 h -0.004 c -0.007,0.008 -0.0141,0.0161 -0.0254,0.0195 -0.005,0.004 -0.0109,0.008 -0.0156,0.01 -0.006,0.004 -0.0119,0.01 -0.0176,0.0117 -0.002,6.4e-4 -0.004,-0.001 -0.006,0 -0.002,6.8e-4 -0.01,0.005 -0.0117,0.006 -0.0133,0.006 -0.0263,0.0127 -0.0391,0.0176 0.003,5.5e-4 -0.01,0.004 -0.006,0.004 0.004,2.1e-4 0.008,-2.2e-4 0.0117,0 -0.004,0.003 -0.009,0.008 -0.0137,0.01 -0.0231,0.0113 -0.0454,0.0217 -0.0703,0.0293 -0.005,8e-5 -0.0103,0.004 -0.0156,0.006 -0.003,1.1e-4 -0.007,0.002 -0.01,0.004 -0.0133,0.004 -0.027,0.0157 -0.041,0.0195 -0.004,5.8e-4 -0.008,1.3e-4 -0.0117,0.002 v -0.002 c -0.004,0 -0.008,0.005 -0.0117,0.008 -0.0155,0.009 -0.0137,0.008 -0.0254,0.0117 -0.007,0 -0.017,0.006 -0.0234,0.01 -0.0117,0.004 -0.0223,0.0139 -0.0352,0.0176 -0.0218,0.008 -0.041,0.0222 -0.0644,0.0293 -0.007,0 -7.6e-4,0.003 -0.0117,0.0117 -0.013,0.0113 -0.0275,0.0177 -0.043,0.0215 -0.008,0.004 -0.0159,0.008 -0.0234,0.0117 -0.0131,0.008 -0.0251,0.019 -0.041,0.0195 -0.002,3e-4 -0.01,-6.3e-4 -0.0117,0 -0.003,9.5e-4 -0.007,0.003 -0.01,0.004 -0.005,3.3e-4 -0.0103,0.004 -0.0156,0.006 -0.005,9.5e-4 -0.007,0.002 -0.008,0.002 l -0.004,-0.002 c -10e-4,4.2e-4 -0.007,0.002 -0.0117,0.004 -0.003,9.1e-4 -0.009,0.005 -0.0117,0.006 -0.0262,0.0113 -0.0517,0.0217 -0.0781,0.0293 -0.006,0.004 -0.0112,0.01 -0.0176,0.0117 -0.002,0 -0.0138,0.005 -0.0156,0.006 -0.01,0.004 -0.0187,0.0127 -0.0293,0.0156 -0.0125,0.008 -0.0227,0.01 -0.0352,0.0176 -0.006,0.004 -0.0131,0.005 -0.0195,0.008 -0.002,9.8e-4 -0.01,0.0107 -0.0117,0.0117 -0.0173,0.0113 -0.0265,0.0159 -0.0469,0.0234 -0.002,4.6e-4 -0.002,-1.4e-4 -0.004,0 l -0.002,-0.01 c -0.002,6.4e-4 -0.002,0.0107 -0.004,0.0117 -0.004,0.004 -0.0126,0.009 -0.0176,0.0117 0.002,0.0425 -0.0253,0.0802 -0.0918,0.0645 -0.0133,0.0273 -0.0244,0.029 -0.0527,0.0391 h -0.004 c -0.002,0.002 -0.007,0.003 -0.008,0.004 -0.002,5.5e-4 -0.004,6.8e-4 -0.006,0.002 -0.001,9.9e-4 -0.002,6.7e-4 -0.004,0.002 h -0.002 c -0.002,8.5e-4 -0.006,-9.3e-4 -0.008,0 l 0.002,0.002 c 0.001,-2e-4 0.003,3e-4 0.004,0 -0.004,0.002 -0.009,0.005 -0.0137,0.008 h -0.002 c -0.003,0.002 -0.005,0.004 -0.008,0.006 6.4e-4,-6.7e-4 -6.2e-4,-0.003 0,-0.004 -9.8e-4,5.9e-4 -6.4e-4,0.003 -0.002,0.004 -0.006,0.004 -0.0134,0.006 -0.0176,0.008 -0.003,9.9e-4 -0.009,0.005 -0.0117,0.006 -0.0151,0.008 -0.0183,0.014 -0.0312,0.0254 -0.009,0.008 -0.0195,0.012 -0.0293,0.0195 -0.004,7.6e-4 -0.008,0.004 -0.0117,0.006 -0.004,0 -0.0131,0.005 -0.0176,0.008 -0.0199,0.0151 -0.0408,0.0297 -0.0664,0.0332 -0.001,8e-5 -0.003,-1.7e-4 -0.004,0 -10e-4,10e-4 -0.003,5.4e-4 -0.004,0.002 -0.003,0.002 -0.009,0.007 -0.0117,0.01 -0.005,0.004 -0.009,0.005 -0.0137,0.008 -0.0236,8e-5 -0.0473,-0.004 -0.0703,0 0.007,0.003 0.0322,0.0107 0.043,0.0117 8.5e-4,0 0.002,6e-4 0.004,0 0.002,-9.5e-4 0.006,-0.003 0.008,-0.004 v 0.002 c -0.002,6.6e-4 -0.006,6.5e-4 -0.008,0.002 -0.0121,0.007 -0.0171,0.0135 -0.0293,0.0234 l -0.002,0.0117 c -0.0335,0.0279 -0.0659,0.0385 -0.0918,0.0371 0.009,0.005 0.0163,0.0137 0.0352,0.01 -0.002,9.8e-4 -0.007,0.005 -0.01,0.006 -0.0384,0.0222 -0.005,0.01 -0.0566,0.0215 h -0.002 c -10e-4,2.9e-4 -0.007,0.002 -0.008,0.002 -0.007,0.004 -0.0109,0.0101 -0.0176,0.0137 -0.0475,0.011 -0.0895,0.0414 -0.13672,0.0527 -0.0165,0.008 -0.036,0.0121 -0.0508,0.0234 -0.006,0.004 -0.0138,0.0118 -0.0195,0.0156 -0.0261,0.0189 -0.021,0.014 -0.043,0.0254 -0.0155,0.008 -0.0228,0.012 -0.0371,0.0195 -0.0325,0.0113 -0.0117,0.001 -0.0469,0.0234 -0.0121,0.008 -0.0246,0.01 -0.0371,0.0176 -0.006,0 -0.0485,0.0161 -0.0488,0.0156 -0.006,0.004 -0.0116,0.009 -0.0176,0.0117 -0.0125,0.008 -0.0246,0.01 -0.0371,0.0137 -0.003,9.5e-4 -0.009,-3.7e-4 -0.0117,0 -0.003,1.2e-4 -0.007,0.003 -0.01,0.004 -0.0143,0.004 -0.0274,0.0138 -0.041,0.0176 -0.004,0.002 -0.005,0.003 -0.006,0.004 -7.6e-4,4.7e-4 -0.004,0.002 -0.0137,0.008 -0.0226,0.0163 -0.0481,0.0277 -0.0723,0.0391 -0.008,0.004 -0.0171,0.008 -0.0254,0.0117 -0.004,0.002 -0.009,-1.8e-4 -0.0117,0.004 -0.0173,0.008 -0.0342,0.0177 -0.0527,0.0215 -0.027,0.0101 -0.0519,0.0248 -0.0781,0.0371 v 0.002 l -0.002,0.004 c -9.9e-4,9.9e-4 -0.004,0.005 -0.006,0.006 v 0.0117 0.002 c -0.005,0.003 -0.0102,0.009 -0.0156,0.0117 v 0.008 h -0.002 c -10e-4,1.9e-4 -0.008,0 -0.01,0 -0.001,1.2e-4 -0.007,1.1e-4 -0.008,0 h -0.002 c -0.0191,0.008 -0.0349,0.0112 -0.0469,0.01 v 0.002 c -0.01,0.008 -0.0183,0.0144 -0.0293,0.0176 l -0.0117,0.006 c -0.004,0.004 -0.009,0.009 -0.0137,0.0117 -0.008,0.01 -0.0174,0.0133 -0.0293,0.0195 -0.003,0.001 -0.009,0.0107 -0.0117,0.0117 -9.8e-4,3.8e-4 -0.0107,0.004 -0.0117,0.004 l -0.002,-0.004 c -0.004,0.004 -0.008,0.008 -0.0117,0.01 -0.007,0.004 -0.0143,0.01 -0.0215,0.0117 -0.006,0.006 -0.012,0.0125 -0.0215,0.0156 -10e-4,7e-4 -0.01,0.006 -0.0117,0.008 -0.007,0.008 -0.0143,0.0101 -0.0215,0.0176 -0.003,10e-4 -0.009,0.005 -0.0117,0.006 h -0.004 c -0.008,0.007 -0.009,0.008 -0.0156,0.0117 -0.005,0.002 -0.019,0.009 -0.0215,0.008 h -0.002 c 9.9e-4,-6.1e-4 -0.001,-0.003 0.002,-0.004 1.2e-4,-0.003 3e-5,-0.009 0,-0.0117 -0.003,0.005 -0.006,0.0119 -0.008,0.0156 -0.0101,0.0166 -0.0132,0.0188 -0.0371,0.0215 l -0.002,-0.0117 c -0.0179,0.003 -0.0345,0.001 -0.0449,-0.004 -9.9e-4,9.8e-4 -0.0102,9.6e-4 -0.01,0 v -0.002 h -0.004 c -0.005,0.002 -0.009,0.008 -0.0137,0.0117 l -0.002,0.004 -0.002,0.004 c -0.005,0.004 -0.01,0.009 -0.0156,0.0117 -0.0155,0.0104 -0.0141,0.01 -0.0254,0.0117 -0.005,6.3e-4 -0.0131,-0.001 -0.0254,0.004 -0.002,4.9e-4 0.01,0.0117 0.0117,0.0117 -0.004,0.003 -0.006,0.01 -0.0117,0.0117 -0.006,0.003 -0.0123,0.009 -0.0156,0.01 l -0.004,0.002 h -0.002 c -8.3e-4,9.8e-4 -0.005,0.004 -0.006,0.006 -0.005,0.003 -0.009,0.01 -0.0137,0.0117 -0.004,0.002 -0.008,0.01 -0.0117,0.0117 -0.011,0.004 -0.0215,0.01 -0.0332,0.0117 -0.005,9.5e-4 -0.0111,0.006 -0.0156,0.008 -0.009,0.004 -0.0171,0.0107 -0.0273,0.0117 -0.007,4e-4 -0.003,1.6e-4 -0.0117,0.006 -0.006,0.003 -0.0129,0.009 -0.0195,0.0117 h -0.002 c -9.2e-4,9.6e-4 -0.0107,-7.5e-4 -0.0117,0.002 -0.006,0.005 -0.0122,0.009 -0.0195,0.0117 -0.002,8.5e-4 -0.004,0.005 -0.006,0.006 -9.9e-4,6.8e-4 -0.008,0.004 -0.008,0.002 -0.01,0.0113 -0.0105,0.0119 -0.0215,0.0156 -0.003,6e-4 -0.009,0.008 -0.0117,0.01 h -0.002 l -0.006,0.004 c -10e-4,1.8e-4 -0.009,-2.2e-4 -0.01,0 -8.4e-4,9.2e-4 -0.009,0.002 -0.01,0.004 l -0.0117,0.002 -0.008,0.002 c -0.003,0.003 -0.007,0.01 -0.0117,0.0117 -0.005,9.9e-4 -0.0104,0.002 -0.0156,0.004 l -0.004,0.006 h -0.002 c -0.002,0.002 -0.003,0.009 -0.004,0.01 l -0.0117,0.006 c -0.006,0.003 -0.0137,0.009 -0.0195,0.0117 -0.005,0.004 0.0107,-0.004 0.0156,-0.006 -0.002,0.002 -0.008,0.005 -0.01,0.006 -0.005,0.002 -0.009,0.009 -0.0137,0.01 l -0.006,0.006 c -0.006,0.005 -0.0108,0.007 -0.0176,0.01 -0.011,0.008 -0.0234,0.008 -0.0332,0.0156 -0.005,0.003 -0.0102,0.01 -0.0156,0.0117 h -0.002 c -0.002,9.9e-4 -0.002,0.007 -0.004,0.008 -0.019,0.007 -0.0215,0.0117 -0.0274,0.0117 -0.002,7.1e-4 -0.008,0.003 -0.01,0.004 -9.8e-4,4.3e-4 -0.003,-3.8e-4 -0.004,0 -0.006,0 -0.0134,0.009 -0.0195,0.0117 -0.009,0.004 -0.0176,0.0134 -0.0273,0.0156 -0.002,4.2e-4 -0.01,-2.9e-4 -0.0117,0 -0.009,0.007 -0.0173,0.0141 -0.0293,0.0176 l -0.004,-0.002 h -0.002 c -0.002,-5.8e-4 -0.01,-0.004 -0.0117,-0.006 h -0.002 c -7.4e-4,10e-4 -0.004,0.007 -0.006,0.008 h 0.006 c 0.002,0 0.008,3e-4 0.01,0 l -0.008,0.01 c -0.004,9.9e-4 -0.008,-7.3e-4 -0.0117,0.002 -9.4e-4,7.8e-4 -0.003,-0.001 -0.004,0.002 l -0.0117,0.0117 c -0.008,1.5e-4 -0.0171,0.004 -0.0254,0.006 -0.002,8.2e-4 -0.009,0.005 -0.01,0.006 -0.01,0.004 -0.0199,0.0106 -0.0312,0.0117 -0.002,0.002 -0.006,0.01 -0.008,0.0117 -9.8e-4,8.5e-4 -0.0107,0.005 -0.0117,0.006 -0.002,7.4e-4 -0.01,-7.2e-4 -0.0117,0.002 l -0.008,0.008 c -5.8e-4,7.4e-4 -0.007,-6.8e-4 -0.008,0 l -0.008,0.004 c -0.002,0.002 -0.009,0.009 -0.0117,0.01 l -0.004,0.006 h -0.002 c -0.002,6.5e-4 -0.006,-7.2e-4 -0.008,0.002 h -0.002 c -5.3e-4,8e-4 5.4e-4,0.0107 0,0.0117 -0.002,0.002 -0.01,0.0107 -0.0117,0.0117 h -0.002 c -0.005,0.005 -0.0111,0.007 -0.0176,0.01 l -0.008,0.002 c -0.006,0.007 -0.0134,0.0148 -0.0195,0.0156 -9.9e-4,1.4e-4 -0.003,-8e-5 -0.004,0 9.8e-4,-4e-4 0.001,0.002 -0.004,0.006 h -0.002 c -9.9e-4,9e-5 -0.009,-6e-5 -0.01,0 -0.004,2e-4 -0.009,6e-5 -0.0117,0 0.002,3.8e-4 0.008,0.004 0.0117,0.004 h 0.006 c -0.002,0.001 -0.01,0.0107 -0.0117,0.0117 h -0.01 c -0.007,0.007 -0.014,0.0129 -0.0234,0.0156 -0.008,0.007 -0.0163,0.0108 -0.0254,0.0137 l -7.1582,25.375 c -2.28861,8.19918 -2.88216,14.02383 -1.7832,17.47461 0.94739,2.97482 2.7586,5.20975 5.43555,6.70312 2.72355,1.41679 5.62712,1.72273 8.70898,0.91992 5.29907,-1.38037 10.92213,-8.94851 16.81641,-21.72851 v -0.002 -0.002 c -0.002,-0.004 -0.0117,-0.009 -0.0117,-0.0156 v -0.0156 c 3e-5,-0.008 3.7e-4,-0.01 0,-0.0137 -4e-5,-0.002 -3e-4,-0.0104 0,-0.0156 -4e-4,-9.9e-4 3.6e-4,-0.0107 0,-0.0117 -0.002,-0.006 -0.0117,-0.0131 -0.0117,-0.0195 V 512 v -0.0156 -0.0137 -0.0156 -0.0156 -0.01 -0.0117 -0.0117 -0.0117 c 0,-0.004 10e-6,-0.008 0,-0.0117 4e-5,-0.008 2.1e-4,-0.0139 0,-0.0215 -5e-5,-0.008 -0.002,-0.0158 0,-0.0195 -9.4e-4,-0.002 -0.0107,-0.006 -0.0117,-0.0137 -3.8e-4,-0.008 0.009,-0.0159 0.0117,-0.0234 0.002,-0.004 0.01,-0.008 0.0117,-0.0117 9.1e-4,-0.002 0.0107,-0.002 0.0117,-0.004 -4.9e-4,-0.003 -0.0117,0.004 -0.0117,0 v -0.0156 c -10e-6,-0.004 -2e-5,-0.012 0,-0.0195 -4e-5,-0.004 -3.1e-4,-0.01 0,-0.0176 4e-5,-2.6e-4 -4e-5,-0.004 0,-0.006 -10e-4,-0.008 -0.003,-0.014 0,-0.0215 0.001,-0.003 0.0107,-0.01 0.0117,-0.0117 v -0.002 -0.002 c -7.4e-4,-0.011 0.008,-0.0161 0.0117,-0.0293 v -0.002 -0.0117 -0.0117 -0.0156 -0.0176 -0.0117 c -0.005,-0.0157 -0.0117,-0.0299 -0.0117,-0.0469 v -0.0117 -0.0156 c 10e-6,-0.004 3e-4,-0.008 0,-0.0117 -6e-5,-0.002 2e-5,-0.007 0,-0.008 -0.003,-0.006 -0.0117,-0.0117 -0.0117,-0.0176 v -0.006 -0.004 c -0.003,-0.005 -0.0117,-0.007 -0.0117,-0.0117 7e-5,-0.008 -4e-4,-0.0118 0,-0.0156 2.7e-4,-0.002 -1.2e-4,-0.005 0,-0.006 v -0.004 h -0.002 c -9.6e-4,-9.8e-4 1.7e-4,-0.0107 -0.004,-0.0117 -8.7e-4,-6.8e-4 -9e-5,-0.01 0,-0.0117 -0.002,-0.006 -0.01,-0.0134 -0.01,-0.0254 v -0.0117 c -7e-5,-0.0174 0.008,-0.0301 0.0156,-0.0371 v -0.0117 -0.0195 -0.0176 c 0,-0.008 -8e-5,-0.0119 0,-0.0156 5e-5,-0.004 -1.9e-4,-0.008 0,-0.0117 2.8e-4,-0.004 -1.6e-4,-0.0117 0,-0.0117 -9.9e-4,-0.006 -0.006,-0.0128 -0.008,-0.0195 -9.8e-4,-0.004 9.5e-4,-0.01 0,-0.0137 v -0.0156 -0.0176 -0.0156 -0.0137 -0.0117 -0.004 l -0.006,-0.002 -0.004,-0.002 c -0.004,-0.004 -0.0107,-0.0257 -0.0117,-0.0293 -0.004,-0.0283 0.003,-0.0437 0.0156,-0.0449 0.003,-2.3e-4 0.009,-9.8e-4 0.0117,0 -2e-5,-0.005 -3e-5,-0.0108 0,-0.0176 3.2e-4,-0.004 0.004,-0.008 0.004,-0.0117 7e-5,-10e-4 -9.8e-4,-0.0117 0,-0.0117 -6.9e-4,-9.4e-4 0.001,-0.0107 -0.004,-0.0117 -10e-4,-0.004 -0.0107,-0.01 -0.0117,-0.0137 -9.9e-4,-0.004 9.7e-4,-0.012 0,-0.0195 v -0.0176 -0.0156 -0.0117 c 0,-0.004 -1e-5,-0.008 0,-0.0117 v -0.0117 c 2e-5,-0.003 -6e-5,-0.01 0,-0.0117 2e-5,-9.9e-4 5.4e-4,-0.008 0,-0.0117 -4.3e-4,-0.004 -0.002,-0.0157 0,-0.0195 7e-4,-10e-4 0.0107,-0.002 0.0117,-0.004 v -0.002 l 0.004,-0.002 v -0.0117 c -6.4e-4,-0.002 0.004,-0.01 0.004,-0.0117 v -0.0117 c -0.01,-0.006 -0.0195,-0.0202 -0.0195,-0.041 10e-6,-0.004 6e-5,-0.008 0,-0.0117 0,-0.003 -3e-4,-0.009 0,-0.0117 -3.8e-4,-0.003 -0.004,-0.0117 -0.004,-0.0117 3.6e-4,-0.008 0.01,-0.009 0.0117,-0.0117 4.3e-4,-0.002 0.002,-0.01 0.002,-0.0117 5e-4,0 0.0107,-0.004 0.0117,-0.006 v -0.0117 -0.0117 -0.0117 l -0.01,-0.0117 c 2e-4,-0.006 0.01,-0.007 0.0117,-0.01 v -0.004 l 0.002,-0.002 c 6.7e-4,-0.002 -5e-4,-0.0107 0,-0.0117 8.5e-4,-0.003 0.0107,-0.008 0.0117,-0.01 v -0.004 c 4e-5,-0.003 -1.3e-4,-0.0119 0,-0.0156 v -0.002 -0.0117 c 4e-5,-9.7e-4 1.5e-4,-0.005 0,-0.006 l -0.0117,-0.008 c -1.7e-4,-9.9e-4 3e-4,-0.0107 0,-0.0117 -2.3e-4,-9.8e-4 -0.008,-0.01 -0.008,-0.0117 v -0.004 c 10e-6,-9.8e-4 -10e-6,-0.003 0,-0.004 v -0.008 c -9.5e-4,-9e-4 -0.009,-0.004 -0.01,-0.008 -4.1e-4,-0.002 -0.008,-0.01 -0.008,-0.0117 v -0.01 c -0.003,-0.003 -0.0117,-0.008 -0.0117,-0.0156 8e-5,-0.004 -5e-5,-0.009 0,-0.0117 v -0.0117 -0.004 c -9.2e-4,-0.003 -0.007,-0.009 -0.008,-0.0117 v -0.006 h 0.004 l 0.004,-0.004 v 0.0117 c 0.007,-9.9e-4 0.0134,-0.009 0.0215,-0.0117 -4.1e-4,-9.9e-4 -0.004,-0.003 -0.004,-0.004 -0.0107,-0.002 -0.0176,-0.004 -0.0215,0 v -0.0137 l -0.006,-0.008 c 0,-0.0212 0.009,-0.0353 0.0195,-0.041 v -0.01 -0.0117 -0.0117 -0.0117 -0.0137 -0.0117 -0.0117 c 0,-0.004 -2e-5,-0.0118 0,-0.0156 0,-0.004 10e-6,-0.008 0,-0.0117 10e-6,-0.002 0,-0.01 0,-0.0117 v -0.004 -0.008 -0.004 c -5.9e-4,-0.008 -0.002,-0.0139 0,-0.0176 9.8e-4,-0.003 0.006,-0.01 0.008,-0.0117 v -0.0117 -0.006 -0.002 -0.0117 -0.0117 -0.0117 -0.0156 c 0,-0.0108 0.009,-0.0186 0.0117,-0.0254 -3e-5,-0.006 -1.1e-4,-0.0113 0,-0.0156 5.9e-4,-0.0113 9.7e-4,-0.0219 0,-0.0332 1.4e-4,0 -6.5e-4,-0.009 0,-0.0117 3e-4,-0.002 0.007,-0.007 0.008,-0.0117 v -0.004 -0.0176 -0.0156 -0.0156 -0.0117 -0.0137 -0.0234 -0.0234 -0.0215 -0.0195 c -3e-5,0 -2.2e-4,-0.0151 0,-0.0215 v -0.002 c -7.6e-4,-0.002 -6.3e-4,-0.008 -0.004,-0.01 -0.003,-0.007 -0.0119,-0.012 -0.0117,-0.0176 -4.2e-4,-0.005 -4.1e-4,-0.0119 0,-0.0156 v -0.008 c -0.004,-0.007 -0.01,-0.009 -0.01,-0.0176 v -0.0117 -0.0117 -0.0156 c 2e-5,-0.004 10e-5,-0.008 0,-0.0117 10e-6,-0.004 -5.3e-4,-0.008 0,-0.0117 -0.002,-0.01 -2e-5,-0.0182 0.01,-0.0274 v -0.0117 -0.0137 c 0.002,0.005 0.008,0.0119 0.0156,0.0117 v -0.0117 c -0.003,-2.9e-4 -0.009,1.1e-4 -0.0117,0 0.002,-5.6e-4 0.01,-0.009 0.0117,-0.01 v -0.0117 c -0.008,-10e-4 -0.0146,0.005 -0.0156,0.0117 v -0.0117 -0.0137 c 0,-0.014 0.007,-0.0259 0.0117,-0.0332 v -0.006 -0.0156 -0.0137 -0.0195 -0.0195 -0.0215 c 2e-5,-0.004 2.5e-4,-0.008 0,-0.0117 -1.1e-4,-0.005 -4.8e-4,-0.01 0,-0.0137 -0.004,-0.007 -0.0107,-0.007 -0.0117,-0.0156 -8e-5,-0.002 -5e-5,-0.009 0,-0.0117 v -0.004 c -0.002,-0.004 -0.004,-0.009 -0.004,-0.0117 -0.002,-0.007 -0.008,-0.0106 -0.01,-0.0176 -10e-4,-0.004 8e-4,-0.0157 0,-0.0195 0,-0.004 -2e-5,-0.008 0,-0.0117 0,-0.004 10e-6,-0.008 0,-0.0117 1.7e-4,-0.0113 9.9e-4,-0.008 0,-0.0156 -4e-4,-0.008 -10e-4,-0.0138 0,-0.0176 9.9e-4,-0.005 0.005,-0.009 0.006,-0.0117 v -0.006 c 0,-0.003 4e-5,-0.008 0,-0.0117 -3e-5,-0.008 -1.3e-4,-0.012 0,-0.0195 v -0.004 c -9.2e-4,-0.007 -7.9e-4,-0.012 0,-0.0176 3.9e-4,-0.005 -0.001,-0.009 0.002,-0.0117 0.002,-0.0109 0.006,-0.0189 0.01,-0.0254 v -0.0117 -0.0117 c 0,-0.004 -6e-5,-0.008 0,-0.0117 6e-5,-0.008 -2.6e-4,-0.012 0,-0.0195 v -0.008 -0.006 -0.01 c -5.6e-4,-0.003 -6.4e-4,-0.01 -0.004,-0.0117 -8.7e-4,-0.004 -6.9e-4,0.009 0,0.0117 -0.004,-0.007 -0.007,-0.0151 -0.006,-0.0254 v -0.0156 -0.0117 -0.0156 -0.0117 -0.0117 -0.0117 c 0,-0.004 -2e-5,-0.008 0,-0.0117 10e-6,-0.004 -2e-5,-0.008 0,-0.0117 10e-5,-0.008 9.9e-4,-0.006 0,-0.0137 -0.001,-0.0131 -0.001,-0.0172 0.004,-0.0234 V 509 c 0,-0.002 -7e-5,-0.009 0,-0.0117 9.7e-4,-0.0113 -0.002,-0.0217 0,-0.0293 8.6e-4,-10e-4 0.005,-0.0107 0.006,-0.0117 v -0.004 c 9.9e-4,-0.009 0.009,-0.017 0.0117,-0.0234 v -0.01 -0.0117 c 0,-0.004 -10e-6,-0.008 0,-0.0117 0,-0.006 -10e-5,-0.0105 0,-0.0156 -5.3e-4,-0.003 2.1e-4,-0.003 0,-0.004 v -0.002 c -5e-5,-9.9e-4 -0.004,-0.009 -0.004,-0.0117 1.7e-4,-0.004 6.4e-4,-0.009 0.004,-0.0117 7.1e-4,-9.8e-4 0.0107,-0.002 0.0117,-0.004 v -0.002 -0.006 c 5.2e-4,-0.008 0.006,-0.006 0.0117,-0.0176 3.3e-4,-9.9e-4 0.007,-0.008 0.008,-0.008 -9.5e-4,-0.009 -0.001,-0.0162 0.004,-0.0254 v -0.0117 -0.0117 -0.0117 -0.0117 -0.0117 -0.0117 -0.0156 -0.0215 -0.0293 -0.0215 -0.0449 c 0,-0.008 10e-6,-0.0139 0,-0.0215 0,-0.008 -7e-5,-0.012 0,-0.0195 -3.1e-4,-0.003 -9.9e-4,-0.0211 0,-0.0254 v -0.004 c -3.8e-4,-9.8e-4 2.6e-4,-0.0107 0,-0.0117 -9.9e-4,-0.004 -0.003,-0.0119 -0.004,-0.0156 -2.1e-4,-9.9e-4 3.4e-4,-0.0107 0,-0.0117 -2e-5,-0.004 -9e-5,-0.0118 0,-0.0156 0,-0.008 -10e-4,-0.0139 0,-0.0215 -6.22788,13.93972 -11.70327,22.26811 -16.21485,23.44336 -3.08187,0.8028 -5.04775,-0.13517 -5.90039,-2.8125 -0.83365,-2.61784 -0.41459,-6.75594 1.26367,-12.41211 z m -6.65625,2.4336 c 0,0 -0.002,0.002 -0.002,0.002 0.003,-5.6e-4 0.005,-0.001 0.008,-0.002 -0.002,1.7e-4 -0.004,-2.5e-4 -0.006,0 z m -0.006,0.002 c -0.003,4.4e-4 -0.006,0.001 -0.01,0.002 0.002,9e-5 0.005,4.1e-4 0.008,0 0,0 0.002,-0.002 0.002,-0.002 z m -0.29688,0.13867 c -0.006,0.005 -0.012,0.0115 -0.0176,0.0176 0.002,-6e-4 0.004,-8e-4 0.006,-0.002 0.006,0 0.0166,-0.0194 0.0117,-0.0156 z m -0.0879,0.0566 c -0.009,0.006 -0.0176,0.0133 -0.0254,0.0215 0.004,-8.1e-4 0.008,-4.1e-4 0.0117,-0.002 0.007,-0.004 0.0201,-0.0233 0.0137,-0.0195 z m -0.80078,0.0137 c -0.01,0.004 -0.0196,0.008 -0.0293,0.0117 v 0.002 c 0.01,-0.004 0.0189,-0.007 0.0352,-0.0137 -0.002,2.4e-4 -0.004,-1.8e-4 -0.006,0 z m 0.55469,0.0293 -0.006,0.006 c 0.005,9.6e-4 0.0165,9e-4 0.0195,0.002 -0.002,-10e-4 -0.01,-0.005 -0.0137,-0.008 z m -2.38086,0.47266 c -0.009,0.005 -0.018,0.009 -0.0273,0.0137 2.1e-4,0.003 -3.5e-4,0.006 0,0.01 -0.0139,0.008 -0.0272,0.017 -0.041,0.0254 0.0129,-0.007 0.0276,-0.0142 0.041,-0.0215 z m -0.0684,0.0488 c -0.002,0.002 -0.005,0.002 -0.008,0.004 0.005,-0.002 0.0106,-0.002 0.0156,-0.004 -0.003,5.1e-4 -0.005,-5.8e-4 -0.008,0 z m -2.4375,0 c -0.0485,0.0104 -0.0799,0.0207 -0.0645,0.0312 0.0204,-0.0118 0.0419,-0.0215 0.0645,-0.0312 z m 3.70899,0.082 c -0.003,0.001 -0.007,0.003 -0.01,0.004 -0.0121,0.008 -0.0165,0.008 -0.0312,0.0156 -0.0133,0.004 -0.0277,0.008 -0.0391,0.0195 v -0.004 c -0.002,0.005 -0.003,0.0103 -0.008,0.0117 -0.006,9.9e-4 -0.0118,2.3e-4 -0.0176,0.002 h -0.002 c -0.003,0.002 -0.006,0.005 -0.01,0.008 0.003,7.5e-4 0.003,2.1e-4 0.006,0.002 -0.002,6.5e-4 -0.002,8e-5 -0.004,0.002 -0.004,0.004 -0.008,0.01 -0.0117,0.01 h -0.002 c -3.9e-4,4.7e-4 -0.005,0.004 -0.008,0.008 l -0.0117,0.0117 c 0.005,-0.001 0.0116,-0.005 0.0176,-0.008 10e-4,-8e-4 0.008,-0.003 0.01,-0.004 0.003,-0.001 0.008,-0.004 0.0117,-0.004 h 0.002 c 0.006,-0.0108 0.0177,-0.0208 0.0352,-0.0293 0.011,-0.004 0.0226,-0.008 0.0332,-0.0156 0.0119,-0.007 0.0235,-0.0142 0.0352,-0.0215 v -0.002 c 8.7e-4,-0.002 0.003,-0.004 0.004,-0.006 z m -0.50391,0.19922 c -0.0101,0.007 -0.0212,0.0128 -0.0332,0.0156 -0.002,4.9e-4 -0.006,0.002 -0.008,0.002 h -0.002 c -0.006,0.004 -0.0127,0.009 -0.0195,0.0117 -0.0106,0.008 -0.0173,0.012 -0.0293,0.0137 v -0.002 c -0.002,0 -0.006,0.002 -0.008,0.004 -10e-4,10e-4 -0.005,0.004 -0.008,0.006 l -0.002,0.002 c -0.008,0.009 -0.0171,0.0175 -0.0273,0.0234 0.002,-9.7e-4 0.005,-2.4e-4 0.008,-0.002 0.002,-7.5e-4 0.002,1e-5 0.004,0 0.002,-2.1e-4 0.003,-10e-6 0.004,0 v -0.002 c 0.008,-0.007 0.0148,-0.0143 0.0234,-0.0176 0.008,-0.004 0.0104,-0.003 0.0117,-0.002 h 0.002 c 10e-4,-2.9e-4 0.005,-0.002 0.01,-0.004 0.002,-9.4e-4 0.004,-0.003 0.006,-0.004 0.009,-0.004 0.019,-0.01 0.0273,-0.0137 0.0113,-0.008 0.01,-0.008 0.0254,-0.0156 0.004,-10e-4 0.006,-0.002 0.01,-0.004 0.004,-0.004 0.008,-0.006 0.0117,-0.008 -0.001,-0.001 -0.008,9e-4 -0.006,-0.004 z m -0.26367,0.20312 c -0.003,8.9e-4 -0.007,0.003 -0.01,0.004 -0.002,0.004 0.006,-8.6e-4 0.006,0.002 10e-4,-0.002 0.002,-0.004 0.004,-0.006 z m -1.16407,0.006 c -0.0127,0.003 -0.0247,0.006 -0.0371,0.01 -9e-4,10e-4 -0.003,2.7e-4 -0.004,0.002 -0.0254,0.0266 -0.0627,0.0396 -0.084,0.0508 v 0.006 c 0.007,-0.003 0.0143,-0.009 0.0215,-0.0117 0.0203,-0.009 0.0403,-0.0183 0.0605,-0.0273 0.0166,-0.0118 0.028,-0.0186 0.043,-0.0293 z m 0.94336,0.10352 c -0.002,4e-4 -0.004,2.5e-4 -0.006,0.002 l -0.002,0.002 c -0.002,10e-4 -0.004,0.002 -0.006,0.004 -10e-4,5.6e-4 -0.003,0.002 -0.004,0.002 -0.005,0.006 -0.0102,0.012 -0.0156,0.0156 0.012,-0.008 0.0217,-0.0177 0.0332,-0.0254 z m -0.0527,0.0371 c -10e-4,7.6e-4 -0.008,0.004 -0.008,0.004 l -0.002,0.002 0.002,0.002 c 0.001,-0.001 0.005,-0.006 0.008,-0.008 z m -0.0508,0.0293 c -0.008,0.005 -0.017,0.009 -0.0254,0.0137 0.002,0 0.01,-0.002 0.0156,-0.004 0.003,-0.004 0.007,-0.007 0.01,-0.01 z m -0.0254,0.0137 c -0.005,0.003 -0.0104,0.005 -0.0156,0.008 -0.003,0.004 -0.007,0.01 -0.01,0.0117 -0.004,0.003 -0.0106,0.008 -0.0156,0.0117 0.001,-1.9e-4 0.003,3.5e-4 0.004,0 8.2e-4,-6.4e-4 0.003,-3.6e-4 0.004,-0.002 0.003,-7.9e-4 0.005,-0.005 0.008,-0.006 9.4e-4,-10e-4 0.003,-0.003 0.004,-0.004 0.007,-0.007 0.0169,-0.0147 0.0215,-0.0176 z m -1.50391,0.0684 -0.002,0.002 c -9.5e-4,0.004 -0.003,0.007 -0.004,0.0117 -5.5e-4,-0.003 -5e-4,-0.007 -0.002,-0.01 -0.003,10e-4 -0.008,0.002 -0.0117,0.004 0.005,0.008 0.009,0.0172 0.0137,0.0254 0.001,-0.003 6.4e-4,-0.007 0.002,-0.01 9.1e-4,0.006 0.003,0.0132 0.006,0.0156 h 0.002 c 0.009,-0.005 0.0168,-0.0106 0.0254,-0.0156 -0.008,-0.007 -0.0185,-0.0149 -0.0293,-0.0234 z m 0.64844,0.0371 c -0.006,0.003 -0.0116,0.008 -0.0176,0.0117 -8.4e-4,0.006 -5.5e-4,0.0116 -0.002,0.0176 0.008,-0.009 0.0157,-0.0168 0.0234,-0.0254 z m -204.83789,0.006 c -0.60892,-0.0306 -1.28185,0.05 -2.01953,0.24219 -5.50804,1.43481 -11.83734,8.205 -18.98828,20.3125 -7.1699,12.048 -12.89621,25.62165 -17.17774,40.71875 l -10.720702,2.79102 -0.359375,1.54492 10.523438,-2.74219 -7.189453,28.93555 c -5.975533,24.49446 -9.910773,39.56496 -11.804688,45.21289 -2.23625,7.02575 -5.405816,13.45737 -9.511719,19.29492 -6.690666,9.53917 -14.462247,15.46163 -23.314453,17.76758 -2.098301,0.54659 -4.42259,0.82965 -6.972656,0.84961 -0.300183,-0.0507 -0.713706,-0.008 -1.238281,0.1289 -0.721291,0.18789 -0.986353,0.57887 -0.796875,1.17383 0.397903,1.24943 3.022679,1.24406 7.875,-0.0215 10.884858,-2.83546 21.139943,-10.66049 30.763672,-23.47657 6.963096,-9.35243 12.531054,-19.40606 16.705078,-30.1582 4.192971,-10.69264 8.446054,-26.10368 12.757814,-46.23437 l 3.54687,-16.29102 17.11328,-4.45703 0.45899,-1.57031 -16.91797,4.40625 c 10.9324,-11.15958 19.26209,-21.80105 24.98437,-31.92578 5.70411,-10.18424 7.71175,-17.92357 6.0254,-23.21875 -0.66791,-2.09725 -1.91543,-3.19126 -3.74219,-3.28321 z m 205.32031,0.0781 c -0.003,5e-4 -0.006,0.002 -0.01,0.002 7.3e-4,10e-4 2e-5,0.006 0.002,0.008 h 0.002 v -0.006 c 0.002,-10e-4 0.005,2.5e-4 0.006,-0.002 z m -0.01,0.008 c -7e-4,5.3e-4 -0.004,0.003 -0.006,0.004 0.002,-4.2e-4 0.004,-0.002 0.006,-0.002 z m -0.0117,0.004 c -0.005,0.004 -0.0103,0.01 -0.0156,0.0117 0.005,-0.002 0.0106,-0.008 0.0156,-0.01 z m -0.10938,0.008 c -0.002,10e-4 -0.004,0.002 -0.006,0.004 9.5e-4,0.002 2e-4,0.01 0.002,0.0117 0.002,-0.002 0.002,-0.009 0.004,-0.0117 z m 0.0703,0.0117 c -0.005,0.002 -0.0113,0.0107 -0.0117,0.0117 h -0.002 c -0.0182,0.0206 -0.035,0.0239 -0.0527,0.0351 0.0109,-0.006 0.0218,-0.0105 0.0332,-0.0137 0.006,0 0.0139,-0.008 0.0195,-0.0117 0.005,-0.005 -0.001,-0.006 0.006,-0.01 l 0.002,-0.002 z m -0.19531,0.0293 c -0.002,4.8e-4 -0.006,0.008 -0.0117,0.01 0.005,-0.002 0.0103,-0.007 0.0156,-0.01 -9.2e-4,0 -0.002,-4e-4 -0.004,0 z m -0.0234,0.0117 c -0.004,0.002 -0.008,0.003 -0.01,0.004 l -0.008,0.006 c -0.002,10e-4 -0.004,2.2e-4 -0.006,0.002 l -0.002,0.01 c 0.006,-0.003 0.0135,-0.008 0.0195,-0.0117 h 0.002 z m 0.14454,0.01 c -0.003,10e-4 -0.005,0.0107 -0.008,0.0117 0.002,-2.5e-4 0.004,-3.4e-4 0.006,-0.002 7.4e-4,-2.3e-4 9.2e-4,-0.007 0.002,-0.01 z m -0.91407,0.55273 c -0.001,6.5e-4 -0.003,0.007 -0.004,0.008 8.5e-4,-4.8e-4 0.003,5.4e-4 0.004,0 z m -1.21289,0.0781 c -0.0134,0.007 -0.039,0.0193 -0.0508,0.0254 0.003,0.003 0.006,0.009 0.01,0.0117 0.012,-0.006 0.0246,-0.013 0.0371,-0.0195 10e-4,-0.005 0.003,-0.009 0.004,-0.0137 z m -203.25781,0.3457 c 1.33442,0.0511 2.23612,0.81263 2.70508,2.28516 1.19371,3.74828 -1.2861,11.12722 -7.4375,22.13672 -6.1514,11.00951 -13.52345,21.30673 -22.11719,30.89062 4.04245,-16.51677 7.36031,-27.94896 9.95508,-34.29492 5.293,-12.59 10.43255,-19.53388 15.41601,-20.83203 0.54097,-0.14092 1.03371,-0.20258 1.47852,-0.18555 z m 202.64844,0.35742 c -0.008,0.003 -0.0165,0.009 -0.0215,0.0117 -0.001,-6e-5 -0.002,-1.8e-4 -0.004,0 -0.003,3.7e-4 -0.005,-7.7e-4 -0.008,0.002 -0.005,9.4e-4 0.009,0.002 0.0137,0 l 0.002,-0.002 c 0.003,1.4e-4 0.005,4.1e-4 0.008,0 0.002,-2.6e-4 0.005,-0.004 0.006,-0.004 h 0.002 z m -107.08594,8.0918 c -0.21685,-0.012 -0.45646,0.0176 -0.71875,0.0859 -2.22945,0.58076 -4.01761,2.65585 -5.36524,6.22851 -1.34685,3.57266 -1.91474,7.58784 -1.70312,12.04297 -2.49428,5.54659 -4.51471,9.90682 -6.06055,13.08008 l -5.08398,10.79492 c -0.60037,-0.10134 -1.22905,-0.0673 -1.88477,0.10352 -3.7376,0.97362 -6.70285,4.03503 -8.89843,9.18164 -2.13002,5.12955 -2.48554,9.92449 -1.06446,14.38672 1.23161,3.86727 3.52879,6.6207 6.89063,8.25781 3.40846,1.56054 7.34189,1.75917 11.80078,0.59766 7.86863,-2.04973 14.03017,-5.78054 18.48437,-11.19336 4.51978,-5.4299 5.92796,-10.82306 4.22266,-16.17774 -0.81476,-2.55835 -2.70577,-5.48049 -5.66992,-8.76758 -5.86273,-6.59126 -9.34244,-11.61171 -10.44141,-15.0625 -0.4358,-1.36842 -0.75136,-3.02774 -0.94531,-4.97461 5.9417,-9.2152 8.5333,-15.01271 7.77539,-17.39257 -0.24158,-0.75858 -0.68735,-1.15549 -1.33789,-1.19141 z m 135.91992,3.66992 c 0.0316,0.0656 0.0569,0.13434 0.0859,0.20117 4.1e-4,-0.003 0.005,-0.0112 0.006,-0.0137 -6.7e-4,-0.0365 0.001,-0.073 -0.002,-0.10937 0.008,0.0113 0.009,0.0256 0.0215,0.0332 0.007,0.004 0.003,-0.0158 -0.002,-0.0234 -0.0168,-0.0193 -0.0435,-0.0319 -0.0606,-0.0508 -0.008,-0.008 -0.001,-0.0256 -0.0117,-0.0332 -0.0105,-0.005 -0.0243,-0.004 -0.0371,-0.004 z m -1.21289,0.4961 c -0.005,0.0169 -0.0126,0.0313 -0.0176,0.0488 0.006,-0.003 0.0115,-0.009 0.0176,-0.0117 -0.003,-0.0116 -9.5e-4,-0.0245 0,-0.0371 z m -0.24023,0.65039 c -0.008,0.0211 -0.0172,0.041 -0.0254,0.0625 0.009,0.005 0.0308,0.0179 0.041,0.0234 -0.007,-0.0284 -0.0124,-0.0567 -0.0156,-0.0859 z m -0.1836,0.46093 v 0.004 c -0.002,0.006 -0.004,0.01 -0.006,0.0156 0.007,-0.002 0.0146,-0.006 0.0215,-0.008 -0.006,-0.003 -0.0101,-0.008 -0.0156,-0.0117 z m 0.53516,1.3418 c -0.0147,0.0126 -0.0301,0.0246 -0.0449,0.0371 0.0178,0.006 0.035,0.0128 0.0527,0.0195 -0.002,-0.0169 -0.005,-0.0365 -0.008,-0.0566 z m -0.16406,0.46289 c 0.012,0.0299 0.0249,0.0615 0.0371,0.0937 0.0123,0.0332 0.0217,0.067 0.0293,0.10156 0.004,-0.01 0.01,-0.0195 0.0137,-0.0293 -0.005,-0.0121 -0.009,-0.0244 -0.0117,-0.0371 -0.006,-0.0314 0.007,-0.0655 0.01,-0.0957 -0.0257,-0.0135 -0.0516,-0.0235 -0.0781,-0.0332 z m -0.35743,0.1543 c 0.0169,0.0186 0.01,0.0808 0.01,0 -0.002,2.4e-4 -0.007,-2.5e-4 -0.01,0 z m -0.0195,0.0117 c -0.004,3.7e-4 -0.009,0.002 -0.0137,0.002 0.003,0.004 0.005,0.007 0.008,0.0117 0.002,-0.006 0.004,-0.0105 0.006,-0.0137 z m 0.0234,0.14843 c 2.1e-4,0.011 3.9e-4,0.0221 0,0.0332 v 0.002 c 0.003,0.002 0.007,0.004 0.01,0.006 -6.3e-4,-0.006 -0.004,-0.0216 -0.01,-0.041 z m -0.78516,0.85743 c -0.007,0.0193 -0.0133,0.0396 -0.0215,0.0586 0.0412,0.0234 0.0818,0.0346 0.12305,0.0391 0.002,2.1e-4 0.004,-2e-4 0.006,0 -0.003,-0.001 -0.007,-0.0107 -0.01,-0.0117 -0.0275,-0.009 -0.0521,-0.0277 -0.0781,-0.0391 -0.007,-0.0179 -0.0141,-0.0316 -0.0195,-0.0469 z m -1.50195,4.21875 c -0.003,0.007 -0.0189,0.0181 -0.0117,0.0215 0.0196,0.0127 0.0453,0.008 0.0684,0.0117 0.0242,0.003 0.0484,0.007 0.0723,0.0117 0.008,0.002 0.0158,3e-4 0.0234,0.006 0.008,0.004 -0.0345,0.008 -0.008,0.0234 0.0242,-0.0141 0.0464,-0.0302 0.0703,-0.0449 -0.0118,-0.004 -0.0231,-0.01 -0.0351,-0.0117 -0.0581,-0.01 -0.11908,-0.0154 -0.17969,-0.0176 z m 0.36914,0.43164 -0.002,0.002 c 10e-4,0.002 0.003,0.006 0.004,0.008 -3.3e-4,-0.003 -0.002,-0.007 -0.002,-0.01 z m -0.75781,1.51562 c -0.004,0.0123 -0.009,0.0228 -0.0137,0.0352 0.003,-0.005 0.007,-0.009 0.01,-0.0137 8.8e-4,-0.006 0.003,-0.0147 0.004,-0.0215 z m 0,0.48828 v 0.002 c 0.0153,0.003 0.0299,0.009 0.043,0.0117 10e-4,-0.003 0.003,-0.009 0.004,-0.0117 -0.0153,0.004 -0.0313,-0.005 -0.0469,-0.002 z m -40.39453,0.0937 v 0.002 c -0.0472,0.003 -0.0678,0.0134 -0.0254,0.043 0.0981,0.0685 0.18489,0.12265 0.26367,0.16796 0.0223,-0.0572 0.0459,-0.11396 0.0703,-0.16992 -0.11264,-0.028 -0.23967,-0.0456 -0.30859,-0.043 z m 0.32226,0.0488 c 0.0241,0.0858 0.0593,0.17047 0.0899,0.25586 0.0133,0.006 0.0226,0.01 0.0351,0.0156 -0.008,-0.0716 0.0216,-0.16238 0.002,-0.22852 -0.0362,-0.016 -0.0761,-0.0299 -0.12696,-0.043 z m -1.16796,0.69727 c -0.005,0.0156 -0.0127,0.0288 -0.0176,0.0449 0.003,0.0365 0.0106,0.0678 0.0273,0.10547 10e-4,-9.9e-4 0.004,-0.0107 0.006,-0.0117 -0.006,-0.0431 -0.011,-0.0928 -0.0156,-0.13867 z m 40.21093,0.0996 c -0.006,0.011 -0.013,0.0195 -0.0215,0.0351 -0.001,0.003 -0.003,0.007 -0.004,0.01 0.003,-2e-4 0.007,0 0.01,0 0.003,5e-5 0.007,2e-5 0.01,0 0.005,-0.0106 0.0108,-0.0189 0.0156,-0.0293 -0.003,-0.005 -0.006,-0.0105 -0.01,-0.0156 z m -0.0664,0.1582 c -5.1e-4,0.004 0.001,0.008 -0.002,0.0117 -8.6e-4,0.006 0.001,0.007 -0.002,0.0117 0.004,-0.008 0.006,-0.0158 0.01,-0.0234 -0.002,2.6e-4 -0.004,-2.4e-4 -0.006,0 z m -0.51563,0.0547 c -0.003,6.2e-4 -0.006,-0.001 -0.01,0.002 2.2e-4,0.0234 4.2e-4,0.0469 0,0.0703 0.005,-0.0232 0.006,-0.0462 0.01,-0.0723 z m -0.58008,0.45312 c -0.003,0.006 -0.007,0.0109 -0.01,0.0176 0.002,-0.003 0.007,-0.009 0.01,-0.0117 v -0.002 z m -0.24023,0.49414 c -0.01,0.0207 -0.018,0.0337 -0.0274,0.0547 0.007,0.007 0.0117,0.0123 0.0156,0.0156 h 0.002 c 0.003,-0.0128 0.005,-0.0246 0.01,-0.0371 -2e-5,-0.008 -1e-5,-0.0135 0,-0.0215 7e-5,-0.004 -7e-5,-0.008 0,-0.0117 z m -0.0645,0.13867 c -0.0116,0.0256 -0.0234,0.0442 -0.0352,0.0703 0.003,0.002 0.005,0.006 0.01,0.0117 0.002,0.002 0.005,0.007 0.008,0.01 5e-5,-0.002 0.001,-0.007 -0.002,-0.008 h 0.002 c 4.5e-4,0.002 -3.8e-4,0.006 0,0.008 v 0.008 c 3.7e-4,0.002 0.002,0.008 0.002,0.01 l 0.002,0.002 v 0.004 c 0.001,0.002 0.003,0.009 0.006,0.0117 0.002,0.003 0.006,0.008 0.008,0.0137 h 0.0117 c 2.6e-4,-0.0386 0.002,-0.0766 0,-0.11523 -1.2e-4,-0.004 2.5e-4,-0.008 0,-0.0117 z m -0.041,0.084 -0.002,0.004 c 3.6e-4,0.002 -2.6e-4,0.008 0,0.01 6.5e-4,0.004 -0.001,0.0118 0.002,0.0156 l 0.006,-0.008 c 0.002,0 -5e-5,-0.009 0,-0.0117 1.2e-4,-0.007 -0.003,-0.009 -0.006,-0.01 z m 0.27148,0.0644 c 2.1e-4,0.0433 6e-5,0.0861 0,0.12891 0.004,-0.004 0.006,-0.003 0.008,0.004 0.001,-0.004 0.003,-0.01 0.004,-0.0156 4.3e-4,-0.011 -0.003,-0.0223 -0.002,-0.0332 4.2e-4,-0.004 0.002,-0.0118 0.002,-0.0156 -0.002,-0.0178 -0.006,-0.0358 -0.01,-0.0547 -6.5e-4,-0.004 0.001,-0.009 -0.002,-0.0137 z m -0.2832,0.01 c -0.006,0.007 -0.007,0.0132 0.002,0.01 -5.2e-4,-0.001 0.001,-0.009 -0.002,-0.01 z m 0.12891,0.0449 c -0.004,2.1e-4 -0.008,0.006 -0.0117,0.006 -3.8e-4,0.0144 -0.001,0.0272 0,0.041 8.9e-4,0.009 0.002,0.0139 0.002,0.0156 3.6e-4,-10e-6 -0.001,-9e-5 0.002,0.0215 v 0.0117 c -7.6e-4,0.008 0.004,0.014 0.006,0.0254 0.002,0.008 0.003,0.0196 0.004,0.0273 6.4e-4,0.008 -0.001,0.01 0.002,0.0137 0.001,0.008 0.002,0.0158 0.004,0.0234 9.9e-4,0.004 0.003,0.009 0.004,0.0137 -0.003,-0.0235 -0.006,-0.0481 -0.004,-0.0703 10e-4,-0.0138 0.003,-0.0292 0.006,-0.043 v -0.0293 c 0,-0.007 0.005,-0.013 0.006,-0.0195 10e-6,-0.003 0,-0.009 0,-0.0117 -2e-5,-0.007 1.6e-4,-0.0169 0,-0.0195 -8e-5,-0.001 1.7e-4,-0.005 0,-0.006 -0.006,5.8e-4 -0.0116,-3.2e-4 -0.0176,0 z m -0.10547,0.0586 -0.002,0.006 c 0,10e-4 0.002,0.005 0.002,0.006 -6e-5,-0.004 -3.6e-4,-0.01 0,-0.0117 z m 0.002,0.0293 -0.002,0.01 0.002,0.002 c 0,-0.003 1e-5,-0.01 0,-0.0117 z m 0,0.0117 -0.002,0.0117 c 6e-4,6e-4 -2.4e-4,0.006 0,0.008 h 0.002 z m 0,0.0234 -0.002,0.01 v 0.006 c 0.002,0.003 8.5e-4,0.006 0.002,0.01 v -0.01 z m 0,0.0254 v 0.0156 0.0234 c 1.1e-4,-0.005 -0.001,-0.009 0.002,-0.0195 3.5e-4,-0.004 0.004,-0.006 0.004,-0.01 -2e-4,-0.006 -0.004,-0.008 -0.006,-0.01 z m -0.002,0.0645 c 1.8e-4,0.002 -0.001,0.009 0.002,0.0117 v -0.0117 z m -0.0234,0.3125 v 0.0117 c 0.005,0.008 0.003,0.0155 0.002,0.0234 10e-4,-5.8e-4 0.003,-0.004 0.004,-0.008 -0.002,-0.009 -0.004,-0.019 -0.006,-0.0273 z m 0.084,0.0156 c -10e-4,9.3e-4 6.8e-4,0.009 -0.002,0.01 2e-4,9.9e-4 0.002,0.0107 0.002,0.0117 0.008,-0.002 0.0146,-0.0125 0.0195,-0.0117 -0.005,-0.004 -0.01,-0.01 -0.0176,-0.01 z m 0.0332,0.0352 c 1.1e-4,0.002 1.8e-4,0.009 0,0.0117 h 0.002 c 8.5e-4,-2.1e-4 0.001,-0.006 -0.002,-0.0117 z m 0,0.0117 h -0.002 c -5.3e-4,0.007 3.5e-4,0.0109 0,0.0156 8.7e-4,-0.004 -0.001,-0.01 0.002,-0.0156 z m -0.13086,0.041 v 0.01 l 0.002,0.0117 c -2.9e-4,-0.002 3e-4,-0.01 0,-0.0117 z m 0,0.0723 -0.002,0.0117 c 0.003,0.008 0.005,0.0137 0.008,0.0215 0,-0.003 0.001,-0.01 -0.002,-0.0117 -10e-4,-0.003 -0.003,-0.008 -0.004,-0.0117 z m 0.0117,0.0488 -0.002,0.0117 h 0.002 c 4e-5,-9.8e-4 -1.1e-4,-0.0117 0,-0.0117 z m 0.10742,0 c -0.003,0.004 -0.007,0.009 -0.01,0.0117 2.3e-4,9.9e-4 -2.2e-4,0.009 0,0.01 0.003,-0.002 0.003,-0.007 0.008,-0.01 0.002,0 0.002,-0.008 0.002,-0.0117 z m 0.16016,0.19531 c -0.002,0.002 -0.005,0.008 -0.008,0.01 -10e-5,5.3e-4 1.5e-4,0.0107 0,0.0117 v 0.0117 c 0.002,-5e-5 0.005,-2e-4 0.006,0 h 0.002 c -3e-5,-0.003 -1.6e-4,-0.009 0,-0.0117 z m -0.12891,0.01 c -8.5e-4,0.002 -0.002,0.005 -0.004,0.008 -10e-4,4.2e-4 -0.003,-0.001 -0.004,0.002 9.6e-4,0.003 0.003,0.01 0.004,0.0137 0.002,-0.008 0.002,-0.0157 0.004,-0.0234 z m -0.11328,0.68164 c 6e-4,9.9e-4 -0.001,0.004 0.002,0.006 -7.3e-4,-0.002 0.001,-0.004 -0.002,-0.006 z m -0.043,0.14258 v 0.004 c 0.002,10e-4 0.005,0.003 0.004,0.002 -0.001,-0.002 -0.003,-0.004 -0.004,-0.006 z m -0.0527,0.18945 c 9.2e-4,8.4e-4 -0.001,0.005 0.002,0.006 0.002,10e-4 0.004,-0.001 0.006,0.002 -0.002,-0.002 -0.006,-0.005 -0.008,-0.008 z m 0.29882,0.0859 c -0.004,0 0.003,0.008 0.006,0.0117 -5.2e-4,-0.003 -0.002,-0.008 -0.002,-0.0117 -10e-4,2.4e-4 -0.003,-2.5e-4 -0.004,0 z m -0.23828,0.0801 c 4.1e-4,0.004 -0.003,0.008 -0.004,0.0117 8.2e-4,-10e-4 0.003,0.001 0.004,-0.002 v -0.004 c 2e-5,-0.002 10e-6,-0.004 0,-0.006 z m 0.24414,0.006 c -0.002,0.009 -0.004,0.0163 -0.006,0.0234 6.2e-4,-10e-4 0.003,-0.002 0.004,-0.004 l 0.002,-0.002 c 4.6e-4,-0.006 -4.7e-4,-0.0112 0,-0.0176 z m -0.008,0.0391 c -0.001,0.004 -0.003,0.008 -0.004,0.0117 -6.2e-4,0.006 -4.6e-4,0.0149 0,0.0234 l 0.002,-0.002 c -7e-5,-0.0112 -0.001,-0.0225 0.002,-0.0332 z m -0.13672,0.15625 c -10e-4,2.7e-4 -0.003,0.002 -0.004,0.002 0.002,0.003 0.004,0.005 0.006,0.008 10e-4,-3.3e-4 0.003,3.8e-4 0.004,0 -2.2e-4,-0.003 -0.002,-0.007 -0.002,-0.01 -0.001,2.1e-4 -0.003,-3.1e-4 -0.004,0 z m -0.0957,0.004 c -0.003,1.3e-4 -0.007,0.002 -0.01,0.002 0.005,3.6e-4 0.01,-3.9e-4 0.0137,0 -10e-4,-3.9e-4 -0.002,-0.002 -0.004,-0.002 z m 0.35156,0.10743 c -3.9e-4,0.002 0.001,0.004 -0.002,0.006 -0.002,0.004 0.001,0.009 -0.004,0.0117 0.003,-0.006 0.007,-0.0109 0.01,-0.0176 -10e-4,-2e-4 -0.003,4e-5 -0.004,0 z m -0.006,0.0176 c -10e-4,10e-4 -0.002,0.003 -0.004,0.004 3e-5,0.002 -2e-5,0.004 0,0.006 0.002,-0.003 0.002,-0.007 0.004,-0.01 z m -0.42383,0.16602 -0.008,0.0293 c 0.003,0.006 0.005,0.0115 0.008,0.0176 l 0.004,0.002 c 10e-4,5.6e-4 0.003,-0.001 0.004,0.002 h 0.002 0.002 v -0.002 -0.002 l -0.002,-0.002 c -0.002,-0.004 -0.003,-0.003 -0.006,-0.0195 v -0.002 -0.002 c -0.003,-0.007 -0.004,-0.0145 -0.004,-0.0215 z m 0.20313,0.11133 c 5.1e-4,0.003 -3.6e-4,0.009 0,0.0117 9e-4,-10e-4 -0.001,-0.005 0.002,-0.006 -7.7e-4,-0.002 0.001,-0.004 -0.002,-0.006 z m -0.17969,0.28711 c 0.005,0.007 0.008,0.013 0.0117,0.0215 4.7e-4,-0.002 -0.001,-0.006 0.002,-0.008 v -0.002 c -0.001,-0.005 -8.6e-4,-0.008 0,-0.0117 -0.006,-0.004 -0.007,0.003 -0.0137,0 z m -39.98242,0.0684 c -0.008,0.009 -0.0172,0.0181 -0.0254,0.0273 0.0127,-10e-4 0.0216,0.001 0.0332,-0.002 -0.003,-0.008 -0.005,-0.017 -0.008,-0.0254 z m -96.36133,0.0195 c 0.30615,1.85322 0.88563,4.11758 1.73828,6.79492 1.04213,3.27231 1.91175,5.78443 2.61133,7.53516 0.68063,1.69122 1.30461,3.42995 1.87305,5.21484 2.12215,6.66361 1.62072,13.55869 -1.50586,20.6875 -3.07996,7.05224 -7.37477,11.29566 -12.88281,12.73047 -2.8196,0.73448 -5.43449,0.54658 -7.84766,-0.56446 -2.41318,-1.11105 -3.9999,-2.85646 -4.75781,-5.23632 -0.70107,-2.20137 -0.44511,-4.5232 0.76562,-6.96485 1.25736,-2.51823 3.07807,-4.37845 5.46485,-5.58008 5.96257,-2.90628 8.38549,-6.11471 7.26757,-9.625 -0.4358,-1.36841 -1.42753,-2.36478 -2.97656,-2.99218 4.50636,-9.48562 7.92327,-16.81921 10.25,-22 z m -39.76367,9.48828 c -2.68696,1.15096 -4.91511,1.95678 -6.68555,2.41797 -1.50815,0.39286 -3.31232,0.63647 -5.41211,0.73242 l -2.25976,9.96484 c -0.006,-1.80255 -0.17008,-3.21121 -0.49219,-4.22265 -1.13687,-3.56979 -3.73728,-4.82464 -7.80273,-3.76563 -4.78675,1.24691 -10.45727,4.85115 -17.00977,10.81055 -14.96571,13.43444 -20.63016,25.86183 -16.99219,37.28515 1.3074,4.10524 3.57836,7.2199 6.81055,9.3418 3.21324,2.06242 6.55789,2.64163 10.0332,1.73633 3.2786,-0.85405 6.19142,-3.19306 8.73828,-7.01367 2.54687,-3.82062 5.77129,-10.7495 9.67579,-20.78711 -0.90459,4.29487 -0.84545,8.04892 0.17773,11.26172 0.98528,3.09382 2.76141,5.43445 5.32617,7.02148 2.54581,1.5275 5.32549,1.89901 8.3418,1.11328 4.45889,-1.16151 9.21287,-6.97539 14.25976,-17.43945 6.29553,-12.78672 9.24361,-19.80331 8.84571,-21.05273 -0.11369,-0.35698 -0.36634,-0.48531 -0.75977,-0.38282 -0.32786,0.0854 -0.59487,0.47638 -0.79883,1.17383 -3.42803,9.5269 -7.15451,17.77974 -11.18164,24.75586 -4.04607,6.91731 -7.38103,10.71714 -10.0039,11.40039 -2.55731,0.66615 -4.28133,-0.39898 -5.17188,-3.19531 -0.92844,-2.91532 0.16464,-9.73875 3.2793,-20.47266 z m 130.68555,4.93164 c -0.0191,0.005 -0.0258,0.0699 -0.0312,0.12695 0.015,-0.0313 0.0318,-0.0741 0.0469,-0.10547 -0.005,-0.007 -0.01,-0.0117 -0.0156,-0.0215 z m -0.006,0.47851 c 0.0257,0.044 0.053,0.0869 0.0742,0.13282 0.022,0.0475 -0.0437,-0.0766 -0.0742,-0.13282 z M 166.6875,527.4375 c 1.83387,0.11426 3.09859,1.26467 3.79492,3.45117 1.32635,4.16475 -0.78753,13.02634 -6.33984,26.58594 -6.80818,16.52846 -12.47359,25.38196 -16.99805,26.56055 -3.80317,0.9907 -6.32113,-0.44719 -7.55273,-4.31446 -2.10321,-6.60411 0.0251,-16.53267 6.38476,-29.78711 6.42518,-13.27152 12.65489,-20.69417 18.6875,-22.26562 0.73769,-0.19217 1.41215,-0.26856 2.02344,-0.23047 z" />
    <path
       id="text11720"
       style="font-style:normal;font-variant:normal;font-weight:normal;font-stretch:normal;font-size:70.992px;line-height:1.25;font-family:'Matura MT Script Capitals';-inkscape-font-specification:'Matura MT Script Capitals, Normal';font-variant-ligatures:none;font-variant-caps:normal;font-variant-numeric:normal;font-variant-east-asian:normal;letter-spacing:3.69748px;fill:#fff;fill-opacity:1;stroke-width:1.39747"
       inkscape:transform-center-x="1.4767587"
       inkscape:transform-center-y="-1.2105315"
       transform="scale(0.26458333)"
       d="m 608.625,467.5332 c -5.26907,2.74867 -12.20103,5.74352 -20.79492,8.98438 l -14.29883,5.52344 0.17383,46.67968 c 0.0344,9.28292 0.22241,20.61894 0.56054,34.00977 0.33461,12.23046 0.51327,21.5633 0.53711,27.99805 0.14309,38.6085 0.076,59.55189 -0.20117,62.82812 -0.34749,3.80519 -2.0406,15.18094 -5.08008,34.12891 l 35.20118,-14.66797 c 1.00338,-2.4476 2.43004,-7.59561 4.28125,-15.44141 l 24.04687,19.74805 c 5.26829,-2.95964 10.56411,-8.34655 15.88672,-16.16016 5.46685,-7.92214 9.2342,-16.01869 11.30078,-24.29101 2.06541,-8.58879 3.06958,-20.42698 3.01367,-35.51172 -0.0528,-14.24084 -1.03468,-25.45424 -2.94531,-33.64258 -1.98255,-8.08132 -5.80294,-14.43662 -11.46094,-19.06445 -5.72991,-4.52083 -13.87669,-7.35552 -24.43945,-8.50391 -3.65864,7.98946 -7.60895,14.98306 -11.85352,20.98047 -2.39689,-22.31453 -3.62884,-42.28081 -3.69335,-59.89648 l -0.10743,-28.79883 c -0.005,-1.26586 -0.0472,-2.89961 -0.12695,-4.90235 z m -245.28516,4.86328 -16.42578,7.87305 c 0,0 -0.002,0.002 -0.002,0.002 -0.003,8.8e-4 -0.005,0.003 -0.008,0.004 l -0.0176,0.01 c -0.003,0.003 -0.005,0.006 -0.008,0.008 -0.001,7.9e-4 -0.002,0.001 -0.004,0.002 -0.002,0.002 -0.006,0.004 -0.01,0.006 -9.2e-4,0.001 -7.2e-4,0.003 -0.002,0.004 -0.007,0.007 -0.0191,0.0112 -0.0293,0.0117 -0.006,0 -0.0146,0.004 -0.0195,0.006 v -0.004 l -0.15039,0.0723 v 0.002 l -0.0215,0.01 c -0.007,0.003 -0.0139,0.007 -0.0215,0.01 -9.7e-4,0.001 -0.003,7.4e-4 -0.004,0.002 -0.003,0.003 -0.005,0.007 -0.008,0.01 -0.006,0.002 -0.0116,0.003 -0.0176,0.004 0.004,-6.5e-4 0.007,0 0.01,0 0.002,0 -0.002,0.003 -0.004,0.004 -0.0134,0.0113 -0.0267,0.018 -0.041,0.0293 -0.026,0.0219 -0.0634,0.0262 -0.0898,0.0488 -10e-4,10e-4 -0.004,0.0107 -0.006,0.0117 -0.006,0.008 -0.0115,0.0118 -0.0176,0.0156 -0.003,0.003 -0.006,0.004 -0.01,0.006 0.001,-0.001 6.2e-4,-0.003 0.002,-0.004 -0.01,0.003 -0.0197,0.006 -0.0293,0.01 -0.006,0.002 -0.0116,0.006 -0.0176,0.008 0.003,8.8e-4 0.005,8.1e-4 0.008,0.002 0.005,-0.005 0.009,-0.007 0.01,-0.008 -8.2e-4,0.002 -0.002,0.005 -0.004,0.008 l -0.002,0.002 h -0.002 l -0.002,-0.002 c -0.007,0.007 -0.0179,0.0159 -0.0312,0.0274 l -0.002,0.002 c -0.002,0.002 -0.004,0.005 -0.006,0.006 -0.003,0.004 -0.005,0.009 -0.008,0.0117 -0.01,0.008 -0.0297,0.0196 -0.043,0.0234 -0.005,10e-4 -0.008,0.002 -0.01,0.002 h -0.002 -0.01 l -0.002,0.002 c -0.002,10e-4 -0.004,0.002 -0.006,0.004 -0.006,0.005 -0.0133,0.009 -0.0195,0.0137 -0.0149,0.007 -0.0306,0.0129 -0.0469,0.0195 l -0.002,0.002 c -10e-4,8.2e-4 -0.003,8.1e-4 -0.004,0.002 -0.009,0.006 -0.0174,0.0133 -0.0274,0.0195 -0.007,0.004 -0.0143,0.005 -0.0215,0.008 -0.0155,0.007 -0.0316,0.011 -0.0469,0.0176 -0.0102,0.004 -0.0209,0.008 -0.0313,0.0117 -0.005,0.002 -0.0123,4e-4 -0.0176,0.002 -0.0106,0.004 -0.0213,0.008 -0.0312,0.0117 -0.02,0.008 -0.0406,0.0159 -0.0625,0.0234 -0.0153,0.004 -0.0318,0.0118 -0.0469,0.0156 -0.005,10e-4 -0.007,0.002 -0.008,0.002 l 0.002,0.002 c -0.0413,0.031 -0.0869,0.0554 -0.13281,0.0781 -0.009,0.008 -0.0202,0.0118 -0.0293,0.0156 -0.0223,0.0151 -0.0378,0.0258 -0.0586,0.0371 -0.0378,0.0238 -0.0766,0.0458 -0.11328,0.0723 -0.006,0.008 -0.0108,0.0118 -0.0176,0.0156 -0.0576,0.0352 -0.0336,0.0164 -0.082,0.0391 -0.0302,0.0125 -0.0595,0.0318 -0.0879,0.0469 -0.009,0.004 -0.0183,0.01 -0.0274,0.0137 -0.0428,0.0255 -0.079,0.0272 -0.10546,0.0176 -0.018,0.011 -0.0304,0.0199 -0.0527,0.0332 -0.0106,0.008 -0.0222,0.0118 -0.0332,0.0156 v -0.01 c -0.0109,0.005 -0.0204,0.0107 -0.0293,0.0117 -0.003,0.008 0.006,0.008 -0.006,0.0273 -0.003,0.004 -0.0115,0.004 -0.0176,0.006 l -0.002,-0.002 c -0.003,-6e-4 -0.007,7.5e-4 -0.01,0 -0.003,0.002 -0.01,0.003 -0.0117,0.004 -0.0159,0.008 -0.0208,0.008 -0.0371,0.0156 -0.0204,0.008 -0.0385,0.0159 -0.0586,0.0273 -0.0255,0.0117 -0.0524,0.0258 -0.0781,0.0371 -0.0113,0.004 -0.0219,0.0118 -0.0332,0.0156 -0.004,0.004 -0.0241,0.009 -0.0254,0.01 -0.003,6e-4 -0.007,-7.5e-4 -0.01,0 -0.0239,0.008 -0.025,0.0121 -0.0488,0.0234 -0.007,0.004 -0.0147,0.006 -0.0215,0.01 -0.003,0.004 -0.007,0.008 -0.01,0.01 -0.004,0 -0.008,0.009 -0.0117,0.0117 -0.0133,0.0113 -0.027,0.0178 -0.041,0.0254 -0.005,0 -0.009,0.008 -0.0137,0.0117 -0.004,0 -0.008,0.009 -0.0117,0.0117 -0.0199,0.0113 -0.0426,0.0255 -0.0664,0.0293 -0.005,5.5e-4 -0.009,0.002 -0.0137,0.004 -0.0117,0.004 -0.0241,0.0118 -0.0352,0.0156 -0.002,7.5e-4 -0.004,4.4e-4 -0.006,0.002 -9.9e-4,4.2e-4 -0.003,4.4e-4 -0.004,0.002 -0.003,0.004 -0.009,0.005 -0.0117,0.008 -0.005,0 -0.01,0.005 -0.0156,0.008 -0.003,10e-4 -0.007,0.002 -0.01,0.006 -0.005,0.004 -0.0109,0.009 -0.0156,0.0117 -0.0229,0.0113 -0.0206,0.012 -0.041,0.0195 l 0.004,0.0117 c -0.0164,0.006 -0.0297,0.006 -0.041,0.004 -0.002,4.8e-4 -0.006,0.003 -0.008,0.004 h -0.002 c -0.0138,0.008 -0.032,0.006 -0.0449,0.0176 -0.0144,0.008 -0.029,0.0159 -0.043,0.0234 -0.005,0.004 -0.01,0.009 -0.0117,0.01 -0.002,6.2e-4 -0.007,0.004 -0.0215,0.0117 -0.005,0.004 -0.0109,0.006 -0.0156,0.008 -6.9e-4,-7.6e-4 2.1e-4,-0.005 -0.002,-0.004 -0.003,0 -0.006,0.007 -0.008,0.01 -0.009,0.0113 -0.0211,0.0196 -0.0332,0.0273 -0.0263,0.0181 -0.0505,0.0376 -0.0781,0.0527 -0.009,0.008 -0.0199,0.01 -0.0293,0.0137 h -0.002 c -0.002,0.003 -0.009,0.004 -0.0117,0.006 l -0.002,0.004 -0.004,0.008 c -0.0104,0.01 -0.0205,0.0142 -0.0332,0.0176 h -0.002 c -0.007,0.008 -0.016,0.0142 -0.0273,0.0176 -0.005,0.004 -0.009,0.01 -0.0137,0.0117 -0.006,0.004 -0.0119,0.006 -0.0176,0.008 -0.002,6.4e-4 -0.006,-0.001 -0.008,0 -0.002,6.8e-4 -0.01,0.002 -0.0117,0.004 -0.0139,0.007 -0.0258,0.0144 -0.0391,0.0195 9.9e-4,0.003 -0.0225,0.0131 -0.0117,0.0137 0.004,2.3e-4 0.008,-2.2e-4 0.0117,0 -0.004,0.003 -0.0109,0.01 -0.0156,0.0117 -0.0231,0.0113 -0.0454,0.0217 -0.0703,0.0293 -0.005,6e-5 -0.008,0.002 -0.0137,0.004 -0.003,1e-4 -0.009,0.004 -0.0117,0.006 -0.0133,0.004 -0.027,0.0157 -0.041,0.0195 -0.004,5.8e-4 -0.008,1.4e-4 -0.0117,0.002 v -0.002 c -0.004,0 -0.008,0.007 -0.0117,0.01 -0.0155,0.009 -0.0137,0.008 -0.0254,0.0117 -0.007,0 -0.0151,0.006 -0.0215,0.01 -0.0117,0.004 -0.0238,0.0139 -0.0371,0.0176 -0.0218,0.008 -0.0391,0.0241 -0.0625,0.0312 -0.007,0 -0.001,-0.001 -0.0117,0.008 -0.013,0.0113 -0.0275,0.0177 -0.043,0.0215 -0.008,0.004 -0.0159,0.008 -0.0234,0.0117 -0.0131,0.008 -0.0232,0.019 -0.0391,0.0195 -0.002,3e-4 -0.01,-6.3e-4 -0.0117,0 -0.003,9.5e-4 -0.007,0.003 -0.01,0.004 -0.005,3.4e-4 -0.0103,0.002 -0.0156,0.004 -0.005,9.5e-4 -0.007,0.004 -0.008,0.004 l -0.002,-0.004 c -0.001,4.2e-4 -0.007,0.004 -0.0117,0.006 -0.003,9e-4 -0.005,0.005 -0.008,0.006 -0.0118,0.005 -0.0237,0.009 -0.0352,0.0137 -4.8e-4,0.002 -2.7e-4,0.005 -0.002,0.006 -0.005,0.004 -0.0103,0.008 -0.0156,0.0117 -0.0141,0.008 -0.0303,0.0159 -0.0469,0.0234 -0.0102,0.004 -0.0217,0.008 -0.0312,0.0117 -0.005,0.004 -0.009,0.01 -0.0137,0.0117 -0.0256,0.0128 -0.0529,0.0182 -0.0801,0.0254 -0.005,10e-4 -0.009,0.009 -0.0137,0.01 -10e-4,5.3e-4 -0.003,3.2e-4 -0.004,0.002 -7e-4,2.3e-4 -0.002,6.5e-4 -0.004,0.002 -0.009,0.024 -0.0331,0.0397 -0.0723,0.0352 -0.004,0 -0.008,0.008 -0.0117,0.01 -0.0178,0.01 -0.0139,0.0117 -0.0117,0.0117 -0.003,10e-4 -0.008,0.005 -0.0215,0.0117 -0.006,0.004 -0.0115,0.009 -0.0176,0.0117 -0.003,10e-4 -0.009,0.003 -0.0117,0.004 -0.009,0.005 -0.017,0.009 -0.0254,0.0117 -0.001,7.4e-4 -0.003,6.8e-4 -0.004,0.002 h -0.002 c -0.003,0.002 -0.003,0.004 -0.006,0.006 6.5e-4,-6.6e-4 -6.2e-4,-0.003 0,-0.004 -9.8e-4,5.9e-4 -0.005,0.003 -0.006,0.004 -0.003,0.002 -0.009,0.003 -0.0117,0.004 -0.003,0.001 -0.01,0.003 -0.0117,0.004 -0.002,9.9e-4 -0.005,0.003 -0.008,0.004 h -0.002 l -0.004,0.002 -0.01,0.002 v 0.002 c -0.008,0.006 -0.0116,0.011 -0.0215,0.0195 -0.009,0.008 -0.0195,0.012 -0.0293,0.0195 -0.004,7.6e-4 -0.008,0.002 -0.0117,0.004 -0.004,0 -0.015,0.007 -0.0195,0.01 -0.0199,0.0151 -0.039,0.0297 -0.0644,0.0332 -0.001,8e-5 -0.003,-1.7e-4 -0.004,0 -10e-4,10e-4 -0.003,5.4e-4 -0.004,0.002 -0.003,0.002 -0.005,0.007 -0.008,0.01 -0.005,0.004 -0.0107,0.009 -0.0156,0.0117 -0.01,3e-5 -0.0195,-6.9e-4 -0.0293,-0.002 7.9e-4,0.004 -0.0119,0.004 -0.0137,0.008 0.006,4.5e-4 0.012,0.004 0.0156,0.004 8.4e-4,0 0.002,6e-4 0.004,0 -0.0121,0.007 -0.0171,0.0116 -0.0293,0.0215 l -0.002,0.0117 c -0.032,0.0267 -0.0626,0.0357 -0.0879,0.0352 -0.001,6.5e-4 -0.003,6.5e-4 -0.004,0.002 8.4e-4,-4.8e-4 0.003,5.4e-4 0.004,0 0.008,0.005 0.0145,0.0153 0.0312,0.0117 -0.002,9.7e-4 -0.007,0.003 -0.01,0.004 -0.0384,0.0222 -0.005,0.01 -0.0566,0.0215 h -0.002 c -0.001,2.9e-4 -0.003,0.002 -0.004,0.002 -0.007,0.004 -0.0128,0.0101 -0.0195,0.0137 -0.0475,0.011 -0.0895,0.0414 -0.13672,0.0527 -0.0165,0.008 -0.036,0.0121 -0.0508,0.0234 -0.006,0.004 -0.0119,0.0118 -0.0176,0.0156 -0.0131,0.009 -0.0187,0.0131 -0.0234,0.0156 h 0.125 c -10e-4,6.4e-4 -0.006,0.005 -0.008,0.006 -0.003,0.002 -0.007,0.009 -0.0117,0.0117 -0.004,0.004 -0.0106,0.008 -0.0137,0.0117 -0.009,0.008 -0.0168,0.009 -0.0254,0.01 -0.005,0.003 -0.009,0.01 -0.0137,0.0117 -0.002,2.5e-4 -0.01,0.002 -0.0117,0.002 h -0.002 c -0.002,8.9e-4 -0.008,0.004 -0.01,0.006 -0.005,0.003 -0.0104,0.01 -0.0156,0.0117 -0.004,2.8e-4 -0.007,-1.7e-4 -0.01,0 -7.9e-4,5.1e-4 -0.003,0.009 -0.006,0.01 -0.002,7.2e-4 -0.01,0.002 -0.0117,0.004 l -0.004,0.006 v -0.006 c -0.008,0.004 -0.0154,0.0119 -0.0234,0.0195 -0.008,0.004 -0.0238,0.008 -0.0332,0.0117 -0.004,7e-4 -0.007,0.006 -0.0117,0.008 -0.001,3.1e-4 -0.0107,0.002 -0.0117,0.002 -0.007,0.007 -0.007,0.007 -0.0176,0.0137 -0.004,0.004 -0.0119,0.009 -0.0156,0.0117 l -0.002,0.002 c -0.005,7.1e-4 -0.009,0.008 -0.0137,0.01 -0.003,0.002 -0.009,0.01 -0.0117,0.0117 -0.004,6.7e-4 -0.0119,0.007 -0.0156,0.008 -0.007,0.003 -0.0109,0.01 -0.0176,0.0117 l -0.0117,0.002 c -0.004,0.003 -0.005,0.007 -0.0137,0.0117 -0.009,0.004 -0.0199,0.005 -0.0293,0.008 -0.009,0.002 -0.005,6.3e-4 -0.0117,0.008 -0.0159,0.0113 -0.0292,0.0237 -0.0469,0.0273 -0.006,5.2e-4 -0.017,0.002 -0.0234,0.004 -0.0121,0.004 -0.0212,0.009 -0.0332,0.0117 l -0.0117,-0.0547 c -0.004,0.002 -0.009,-1.6e-4 -0.0117,0.004 -0.0173,0.008 -0.0342,0.0177 -0.0527,0.0215 -0.0513,0.0193 -0.0981,0.0512 -0.15234,0.0625 v -0.004 c -0.004,8.9e-4 -0.008,6.3e-4 -0.0117,0.002 -10e-4,0.003 -0.003,0.006 -0.004,0.008 4e-4,-9.9e-4 -5.2e-4,-0.003 0,-0.004 -0.005,0.003 -0.0102,0.007 -0.0156,0.01 v 0.004 h 0.002 c -0.002,0.002 -0.003,0.0107 -0.004,0.0117 l 0.002,-0.0117 c -0.001,1.9e-4 -0.002,0 -0.004,0 -10e-4,1.2e-4 -0.0107,1.1e-4 -0.0117,0 h -0.002 c -0.008,0.003 -0.0165,0.0107 -0.0234,0.0117 h -0.0117 l -0.0801,0.0391 -0.004,0.004 c -0.006,0.005 -0.0126,0.009 -0.0215,0.0137 -0.003,0.001 -0.009,0.0107 -0.0117,0.0117 -9.8e-4,3.7e-4 -0.005,0.004 -0.006,0.004 l -0.0117,-0.004 c -0.004,0.004 -0.008,0.01 -0.0117,0.0117 -0.007,0.004 -0.0143,0.01 -0.0215,0.0117 -0.006,0.006 -0.012,0.0106 -0.0215,0.0137 -9.8e-4,7.1e-4 -0.004,0.004 -0.006,0.006 -0.007,0.008 -0.0143,0.0101 -0.0215,0.0176 -0.003,10e-4 -0.009,0.01 -0.0117,0.0117 h -0.01 c -0.002,0.002 -0.009,-6.9e-4 -0.01,0.002 -0.002,3.5e-4 -0.008,-4e-4 -0.01,0 -0.002,4.6e-4 -0.008,0.009 -0.01,0.01 0.003,-4.4e-4 0.008,6.5e-4 0.01,-0.002 -0.002,0.002 -0.006,0.01 -0.01,0.0117 -0.005,0.002 -0.0209,0.0125 -0.0234,0.0117 h -0.002 c -0.0129,0.0226 -0.0147,0.0205 -0.041,0.0234 l -0.004,-0.0117 c -0.008,9.9e-4 -0.015,5.9e-4 -0.0215,0 L 326.45117,490.25 c -0.0101,75.32429 -0.15609,123.53935 -0.43945,144.64453 -0.35607,21.00122 -1.0529,37.94549 -2.08984,50.83789 18.13601,-4.28633 31.07269,-6.72131 38.80859,-7.30664 -0.39557,-9.16978 -0.60117,-15.38808 -0.61328,-18.6582 -0.0149,-4.00853 0.0745,-9.23451 0.26758,-15.67383 0.11839,-6.96522 0.17773,-10.71085 0.17578,-11.23828 l -0.14844,-40.03125 c 2.22918,-3.42294 5.82139,-9.98861 10.77539,-19.69336 3.89239,16.05869 6.02241,25.24356 6.39258,27.55664 L 384,637.81641 c -0.46669,10.66495 -2.22108,34.80886 -5.26367,72.42968 12.9737,-11.77303 24.71619,-24.15366 35.22656,-37.14062 0.44872,-15.51738 1.05615,-27.50318 1.82031,-35.95899 1.31491,-15.95766 1.95939,-27.15509 1.93555,-33.58984 -0.0676,-18.24937 -2.46527,-31.06861 -7.19336,-38.45898 -4.7277,-7.28488 -14.4794,-14.09353 -29.25586,-20.42774 l -1.30273,0.0273 -17.36524,26.79296 -0.14453,-38.92578 0.29492,-20.59765 v -0.002 c 10e-6,-0.004 10e-6,-0.0118 0,-0.0156 2e-5,-0.004 -3e-5,-0.007 0,-0.01 5e-5,-0.002 1.9e-4,-0.004 0,-0.006 -7e-5,-0.002 -3.3e-4,-0.0104 0,-0.0156 -4.3e-4,-0.001 3.7e-4,-0.003 0,-0.004 -0.002,-0.006 -0.004,-0.0131 -0.004,-0.0195 v -0.0156 -0.0137 -0.0156 -0.0156 -0.0156 -0.0117 -0.0117 -0.0117 -0.01 c 0,-0.004 1e-5,-0.008 0,-0.0117 4e-5,-0.008 2.1e-4,-0.0139 0,-0.0215 -7e-5,-0.008 -0.002,-0.0158 0,-0.0195 -9.6e-4,-0.002 -0.003,-0.006 -0.004,-0.0137 -3.8e-4,-0.008 0.003,-0.0159 0.006,-0.0234 0.002,-0.003 0.004,-0.009 0.006,-0.0117 l 0.002,-0.0781 c -9e-5,-0.002 -1.9e-4,-0.006 0,-0.008 l 0.002,-0.14063 c -7.2e-4,-0.005 -3.3e-4,-0.0119 0,-0.0176 0,-0.004 -10e-6,-0.008 0,-0.0117 0,-0.004 10e-6,-0.0118 0,-0.0156 2e-5,-0.004 3.1e-4,-0.008 0,-0.0117 -7e-5,-0.002 3e-5,-0.003 0,-0.004 -0.003,-0.006 -0.004,-0.0117 -0.004,-0.0176 v -0.0117 -0.002 c -0.003,-0.005 -0.004,-0.007 -0.004,-0.0117 7e-5,-0.008 -4e-4,-0.0118 0,-0.0156 h -0.002 c -9.9e-4,-10e-4 0.001,-0.003 -0.002,-0.004 -8.9e-4,-6.8e-4 -1.1e-4,-0.01 0,-0.0117 -0.002,-0.006 -0.004,-0.0153 -0.004,-0.0273 v -0.002 c -7e-5,-0.019 0.007,-0.0325 0.0156,-0.0391 v -0.0117 -0.0195 c -10e-6,-0.004 -10e-6,-0.01 0,-0.0176 -10e-6,-0.008 -9e-5,-0.0119 0,-0.0156 5e-5,-0.004 -2e-4,-0.008 0,-0.0117 2.8e-4,-0.004 -1.7e-4,-0.0117 0,-0.0117 -10e-4,-0.006 -0.004,-0.0109 -0.006,-0.0176 -0.001,-0.004 9.6e-4,-0.0119 0,-0.0156 v -0.0137 -0.0195 -0.0137 -0.0156 -0.004 c -3.2e-4,-10e-4 2.7e-4,-0.0107 0,-0.0117 v -0.0117 c -0.001,-6.5e-4 -0.003,-0.002 -0.004,-0.004 l -0.002,-0.0117 c -0.004,-0.004 -0.007,-0.0217 -0.008,-0.0254 -0.004,-0.0283 0.003,-0.0437 0.0156,-0.0449 0.003,-1.5e-4 0.005,0.007 0.008,0.01 l 0.002,-0.11524 v -0.0117 -0.0117 c 10e-6,-0.004 2e-5,-0.008 0,-0.0117 5e-5,-0.003 -1e-5,-0.01 0,-0.0117 5e-5,-0.001 5.7e-4,-0.008 0,-0.0117 -1.3e-4,-0.004 -0.002,-0.0157 0,-0.0195 V 510.75 c -0.007,-0.007 -0.0117,-0.0191 -0.0117,-0.0352 10e-6,-0.004 6e-5,-0.008 0,-0.0117 -2e-5,-0.003 -3.5e-4,-0.009 0,-0.0117 -4.3e-4,-0.003 -0.002,-0.01 -0.002,-0.01 3.8e-4,-0.008 0.002,-0.009 0.004,-0.0117 4.4e-4,-0.002 0.002,-0.01 0.002,-0.0117 5e-4,0 0.005,-0.002 0.006,-0.004 v -0.002 -0.002 -0.002 l -0.004,-0.0117 c 2.1e-4,-0.006 0.004,-0.009 0.006,-0.0117 v -0.002 l 0.002,-0.01 c 6.7e-4,-0.002 -5.1e-4,-0.005 0,-0.006 l 0.002,-0.002 v -0.0274 c -6.6e-4,-0.002 -0.002,-0.008 -0.002,-0.0117 v -0.002 c 10e-6,-9.9e-4 -4e-5,-0.0107 0,-0.0117 v -0.0117 c -9.8e-4,-9e-4 -0.003,0.001 -0.004,-0.002 -4.1e-4,-0.002 -0.004,-0.01 -0.004,-0.0117 v -0.0117 c -0.003,-0.003 -0.006,-0.006 -0.006,-0.0137 9e-5,-0.004 -1e-4,-0.009 0,-0.0117 v -0.0117 -0.002 c -9.7e-4,-0.003 -0.003,-0.009 -0.004,-0.0117 v -0.0117 -0.0117 -0.002 -0.0117 -0.002 l -0.002,-0.008 c 6e-5,-0.002 -0.001,-0.003 0.002,-0.004 v 0.0117 c 0.005,-4.6e-4 0.0127,-0.008 0.0195,-0.01 v -0.01 c -0.009,-0.002 -0.0163,0.002 -0.0195,0.006 v -0.01 l -0.002,-0.008 c 0,-0.0221 0.0106,-0.0358 0.0215,-0.041 v -0.0117 -0.0117 -0.0117 -0.01 -0.0156 -0.0117 -0.0117 c 0,-0.004 -2e-5,-0.0118 0,-0.0156 1e-5,-0.004 2e-5,-0.008 0,-0.0117 2e-5,-0.002 1e-5,-0.01 0,-0.0117 v -0.002 -0.002 -0.002 c -5.9e-4,-0.008 -0.002,-0.0158 0,-0.0195 6.9e-4,-0.002 -0.001,-0.01 0.002,-0.0117 l 0.002,-0.0254 v -0.0117 -0.0117 -0.0156 c 0,-0.003 -3.2e-4,-0.007 0,-0.01 l 0.004,-0.29687 c -1.4e-4,-9.8e-4 -1.5e-4,-0.007 0,-0.008 -4.4e-4,-0.005 -4.3e-4,-0.01 0,-0.0137 v -0.01 c -0.004,-0.007 -0.004,-0.0109 -0.004,-0.0195 v -0.0117 -0.01 c 0,-0.004 -10e-6,-0.0119 0,-0.0156 2e-5,-0.004 1e-4,-0.008 0,-0.0117 1e-5,-0.004 -5.5e-4,-0.006 0,-0.01 -0.002,-0.01 -0.001,-0.0165 0.004,-0.0254 v -0.0117 -0.0156 l 0.002,0.004 0.002,-0.0117 c -9.6e-4,8.7e-4 -0.004,-0.001 -0.004,0.002 v -0.0117 -0.0137 c 0,-0.009 0.002,-0.0154 0.004,-0.0215 v -0.002 l 0.004,-0.16016 c -0.002,-0.004 -0.004,-0.008 -0.004,-0.0117 -0.002,-0.007 -0.006,-0.0106 -0.008,-0.0176 -10e-4,-0.004 8.1e-4,-0.0157 0,-0.0195 0,-0.004 -2e-5,-0.008 0,-0.0117 1e-5,-0.004 2e-5,-0.008 0,-0.0117 1.8e-4,-0.0113 0.001,-0.006 0,-0.0137 -4e-4,-0.008 -10e-4,-0.0157 0,-0.0195 0.001,-0.005 0.003,-0.009 0.004,-0.0117 v -0.002 c 0,-0.003 4e-5,-0.008 0,-0.0117 -4e-5,-0.008 -1.4e-4,-0.012 0,-0.0195 v -0.002 c -9.3e-4,-0.007 -8e-4,-0.0139 0,-0.0195 3.9e-4,-0.005 -0.001,-0.009 0.002,-0.0117 9.9e-4,-0.01 0.006,-0.0172 0.01,-0.0234 v -0.002 -0.0547 c -0.004,-0.007 -0.009,-0.0151 -0.008,-0.0254 v -0.0156 -0.0117 -0.0156 -0.0117 -0.0117 -0.0117 c 0,-0.004 -2e-5,-0.008 0,-0.0117 10e-6,-0.004 -2e-5,-0.006 0,-0.01 10e-5,-0.008 9.9e-4,-0.008 0,-0.0156 -10e-4,-0.0131 -0.001,-0.0153 0.006,-0.0215 v -0.008 c 3e-5,-0.002 -8e-5,-0.009 0,-0.0117 0.001,-0.0113 -0.002,-0.0217 0,-0.0293 8.9e-4,-9.9e-4 0.003,-0.003 0.004,-0.004 v -0.0117 -0.0234 -0.0117 c 0,-0.007 -0.001,-0.0121 0.002,-0.0176 v -0.0117 c -0.002,-0.006 -0.002,-0.0138 0,-0.0195 l 0.008,-0.50195 c -3.7e-4,-0.003 0.001,-0.005 -0.002,-0.0117 -8.7e-4,-0.004 0.001,-0.01 -0.002,-0.0137 -4e-4,-0.0126 0.004,-0.0232 0.01,-0.0293 v -0.0117 z m -18.21093,8.73633 c -0.002,0.002 -0.005,0.002 -0.008,0.004 -9.9e-4,10e-4 -0.004,-2.5e-4 -0.006,0.002 l -0.002,0.002 c -10e-4,7.3e-4 -0.003,5.2e-4 -0.004,0.002 v 0.002 c -6.4e-4,0.005 0.003,0.007 0.008,0.0156 7e-4,0.004 4e-4,0.007 0.002,0.01 0.002,3.7e-4 0.004,-4.4e-4 0.006,0 0.002,-0.008 0.003,-0.022 0.006,-0.0351 z m -0.01,0.0371 c -0.008,-0.002 -0.0172,-0.004 -0.0254,-0.002 -0.009,0.003 0.0145,0.008 0.0273,0.01 -5.9e-4,-10e-4 -4e-4,-0.004 -0.002,-0.008 z m 0.002,0.008 c 0.002,3.2e-4 0.003,0.002 0.004,0.002 0.004,0 0.006,-0.004 0.01,-0.006 -0.003,-7.7e-4 -0.007,-5.2e-4 -0.01,-0.002 -2.7e-4,0.002 -0.004,0.005 -0.004,0.006 z m 20.81641,22.61719 c -0.004,0.007 -0.008,0.014 -0.0137,0.0215 0.005,-0.007 0.009,-0.0143 0.0137,-0.0215 z m -3.05078,6.48828 c 6e-4,10e-4 -0.001,0.004 0.002,0.006 -7.3e-4,-0.002 0.001,-0.004 -0.002,-0.006 z m -0.10742,0.77149 c 0.001,0.002 -0.001,0.005 0.004,0.006 v -0.004 c -0.001,-4.8e-4 -0.003,0.001 -0.004,-0.002 z m -0.006,0.22851 -0.01,0.0254 c 7.4e-4,0.002 -0.001,0.004 0.002,0.006 10e-4,0.003 0.004,0.004 0.006,0.008 l 0.006,0.008 v -0.0312 -0.002 c -8.8e-4,-0.004 -0.004,-0.009 -0.004,-0.0137 z m -45.40039,15.37891 c 0.0257,0.044 0.053,0.0869 0.0742,0.13281 0.022,0.0475 -0.0437,-0.0766 -0.0742,-0.13281 z m 171.68359,11.91601 c -17.54388,7.96619 -30.57958,12.46224 -39.10937,13.48633 -1.93446,24.41042 -2.85477,49.69452 -2.75782,75.85547 0.0493,13.29145 1.38969,23.49705 4.01953,30.61524 2.62946,7.0127 5.35909,11.59626 8.1875,13.75195 2.68418,2.26423 9.09455,5.18967 19.23243,8.77344 12.8967,-13.03736 22.12059,-21.61998 27.67382,-25.7461 0.0309,8.33353 -0.58511,17.5254 -1.84961,27.57422 l 14.95313,-4.58984 c 11.99103,-3.73459 20.04614,-6.17331 24.16406,-7.31445 -0.77005,-32.16001 -1.18199,-55.04443 -1.23242,-68.65235 -0.0868,-23.41827 0.16525,-43.25677 0.75586,-59.51562 -11.84915,2.99311 -22.29292,4.58646 -31.33203,4.77734 -2.38633,0.0504 -4.99152,-0.2645 -7.81445,-0.94336 1.85786,13.46425 2.8421,34.91268 2.95117,64.34375 0.0324,8.75548 0.018,14.66394 -0.043,17.72461 -2.8718,5.65193 -7.6554,12.45033 -14.35156,20.39844 -3.215,-8.89927 -5.77532,-16.86265 -7.68164,-23.89063 -1.83128,-6.29108 -2.75936,-12.91672 -2.78516,-19.8789 -0.0246,-6.64573 0.48876,-14.25291 1.54101,-22.82032 1.0542,-8.25094 1.89491,-15.65305 2.52149,-22.20703 1.04403,-10.99362 2.02986,-18.24124 2.95703,-21.74219 z m 129.60352,31.75977 c 7.64719,14.50245 11.5097,32.30285 11.58789,53.40039 0.0129,3.4811 -0.1884,7.23035 -0.60743,11.24805 -7.6769,-3.21374 -14.2355,-6.50453 -19.67187,-9.8711 0.0504,-5.90883 0.0992,-12.23944 0.14648,-18.99218 0.11922,-6.85976 0.17072,-12.23954 0.15625,-16.14258 2.30112,-3.52996 5.09747,-10.07844 8.38868,-19.64258 z" />
    <ellipse
       style="opacity:1;fill:#fff;fill-opacity:1;stroke:none;stroke-width:0.198839"
       id="path19044"
       cx="26.22592"
       cy="147.36923"
       rx="4.3384285"
       ry="3.0532475"
       transform="matrix(0.93618223,-0.35151506,0.44808722,0.89398985,0,0)" />
  </g>
</svg>
